<svg width="302" height="6" viewBox="0 0 302 6" fill="none" xmlns="http://www.w3.org/2000/svg">
<path d="M-0.0001632 2.67192C-0.0001632 4.14794 1.19639 5.34449 2.67241 5.34449C4.14843 5.34449 5.34498 4.14794 5.34498 2.67192C5.34498 1.1959 4.14843 -0.000652562 2.67241 -0.000652562C1.19639 -0.000652562 -0.0001632 1.1959 -0.0001632 2.67192ZM296.655 2.67192C296.655 4.14794 297.852 5.34449 299.328 5.34449C300.804 5.34449 302 4.14794 302 2.67192C302 1.1959 300.804 -0.000652562 299.328 -0.000652562C297.852 -0.000652562 296.655 1.1959 296.655 2.67192ZM2.67241 2.67192V3.17302H299.328V2.67192V2.17081H2.67241V2.67192Z" fill="#B40082"/>
</svg>
