<svg width="355" height="647" viewBox="0 0 355 647" fill="none" xmlns="http://www.w3.org/2000/svg">
<path d="M12.4179 11.0312C12.892 10.5797 13.3773 10.1399 13.873 9.71191L14.5263 10.4678C15.0092 10.0508 15.5027 9.64514 16.0058 9.25195L15.3896 8.46582C15.9049 8.06311 16.4307 7.67345 16.9658 7.2959L17.5429 8.11035C18.0638 7.74285 18.5945 7.38807 19.1338 7.0459L18.5986 6.20312C19.1507 5.85276 19.7122 5.51599 20.2822 5.19238L20.7744 6.05957C21.3285 5.74499 21.8913 5.44402 22.4619 5.15625L22.0117 4.26562C22.5952 3.97134 23.1867 3.69092 23.7861 3.4248L24.1914 4.33691C24.7734 4.07854 25.3634 3.8338 25.9599 3.60351L25.5996 2.67285C26.2087 2.4377 26.8251 2.21749 27.4482 2.01172L27.7617 2.95898C28.3658 2.75949 28.9769 2.57367 29.5937 2.40332L29.3271 1.44238C29.9562 1.26865 30.5913 1.11016 31.2324 0.966796L31.4502 1.93945C32.0706 1.80071 32.6969 1.67715 33.3281 1.56836L33.1582 0.585936C33.8006 0.475206 34.4481 0.379498 35.1006 0.299803L35.2217 1.29004C35.8522 1.21303 36.4874 1.15104 37.1269 1.10449L37.0547 0.108397C37.7042 0.0611254 38.3579 0.0285799 39.0156 0.0126936L39.0156 0.011717L39.039 1.01172C39.3583 1.004 39.6789 0.999998 40 0.999998L40.9961 0.999998L40.9961 -1.792e-06L42.9892 -1.87912e-06L42.9892 0.999998L44.9824 0.999998L44.9824 -1.96624e-06L46.9746 -2.05333e-06L46.9746 0.999998L48.9677 0.999998L48.9677 -2.14045e-06L50.9599 -2.22753e-06L50.9599 0.999998L52.9531 0.999998L52.9531 -2.31465e-06L54.9453 -2.40174e-06L54.9453 0.999998L56.9384 0.999998L56.9384 -2.48886e-06L58.9316 -2.57598e-06L58.9316 0.999997L60.9238 0.999997L60.9238 -2.66307e-06L62.917 -2.75019e-06L62.917 0.999997L64.9092 0.999997L64.9092 -2.83727e-06L66.9023 -2.92439e-06L66.9023 0.999997L68.8955 0.999997L68.8955 -3.01152e-06L70.8877 -3.0986e-06L70.8877 0.999997L72.8808 0.999997L72.8808 -3.18572e-06L74.873 -3.2728e-06L74.873 0.999997L76.8662 0.999997L76.8662 -3.35993e-06L78.8584 -3.44701e-06L78.8584 0.999997L80.8515 0.999996L80.8515 -3.53413e-06L82.8447 -3.62126e-06L82.8447 0.999996L84.8369 0.999996L84.8369 -3.70834e-06L86.83 -3.79546e-06L86.83 0.999996L88.8222 0.999996L88.8222 -3.88254e-06L90.8154 -3.96967e-06L90.8154 0.999996L92.8086 0.999996L92.8086 -4.05679e-06L94.8008 -4.14387e-06L94.8008 0.999996L96.7939 0.999996L96.7939 -4.231e-06L98.7861 -4.31808e-06L98.7861 0.999996L100.779 0.999996L100.779 -4.4052e-06L102.771 -4.49228e-06L102.771 0.999996L104.765 0.999995L104.765 -4.57941e-06L106.758 -4.66653e-06L106.758 0.999995L108.75 0.999995L108.75 -4.75361e-06L110.743 -4.84074e-06L110.743 0.999995L112.735 0.999995L112.735 -4.92782e-06L114.728 -5.01494e-06L114.728 0.999995L116.721 0.999995L116.721 -5.10202e-06L118.714 -5.18915e-06L118.714 0.999995L120.707 0.999995L120.707 -5.27627e-06L122.699 -5.36335e-06L122.699 0.999995L124.692 0.999995L124.692 -5.45048e-06L126.685 -5.53756e-06L126.685 0.999994L128.678 0.999994L128.678 -5.62468e-06L130.671 -5.71181e-06L130.671 0.999994L132.663 0.999994L132.663 -5.79889e-06L134.656 -5.88601e-06L134.656 0.999994L136.648 0.999994L136.648 -5.97309e-06L138.642 -6.06022e-06L138.642 0.999994L140.634 0.999994L140.634 -6.1473e-06L142.627 -6.23442e-06L142.627 0.999994L144.62 0.999994L144.62 -6.32155e-06L146.612 -6.40863e-06L146.612 0.999994L148.605 0.999994L148.605 -6.49575e-06L150.598 -6.58283e-06L150.598 0.999993L152.591 0.999993L152.591 -6.66996e-06L154.583 -6.75704e-06L154.583 0.999993L156.576 0.999993L156.576 -6.84416e-06L158.569 -6.93129e-06L158.569 0.999993L160.561 0.999993L160.561 -7.01837e-06L162.555 -7.10549e-06L162.555 0.999993L164.547 0.999993L164.547 -7.19257e-06L166.54 -7.2797e-06L166.54 0.999993L168.532 0.999993L168.532 -7.36678e-06L170.525 -7.4539e-06L170.525 0.999993L172.519 0.999992L172.519 -7.54103e-06L174.511 -7.62811e-06L174.511 0.999992L176.504 0.999992L176.504 -7.71523e-06L178.496 -7.80231e-06L178.496 0.999992L180.489 0.999992L180.489 -7.88944e-06L182.482 -7.97656e-06L182.482 0.999992L184.475 0.999992L184.475 -8.06364e-06L186.468 -8.15077e-06L186.468 0.999992L188.46 0.999992L188.46 -8.23785e-06L190.453 -8.32497e-06L190.453 0.999992L192.445 0.999992L192.445 -8.41205e-06L194.438 -8.49918e-06L194.438 0.999992L196.432 0.999991L196.432 -8.5863e-06L198.424 -8.67338e-06L198.424 0.999991L200.417 0.999991L200.417 -8.76051e-06L202.409 -8.84759e-06L202.409 0.999991L204.402 0.999991L204.402 -8.93471e-06L206.395 -9.02179e-06L206.395 0.999991L208.388 0.999991L208.388 -9.10892e-06L210.381 -9.19604e-06L210.381 0.999991L212.373 0.999991L212.373 -9.28312e-06L214.366 -9.37024e-06L214.366 0.999991L216.358 0.999991L216.358 -9.45733e-06L218.352 -9.54445e-06L218.352 0.99999L220.345 0.99999L220.345 -9.63157e-06L222.337 -9.71866e-06L222.337 0.99999L224.33 0.99999L224.33 -9.80578e-06L226.322 -9.89286e-06L226.322 0.99999L228.315 0.99999L228.315 -9.97998e-06L230.308 -1.00671e-05L230.308 0.99999L232.301 0.99999L232.301 -1.01542e-05L234.294 -1.02413e-05L234.294 0.99999L236.286 0.99999L236.286 -1.03284e-05L238.279 -1.04155e-05L238.279 0.99999L240.271 0.999989L240.271 -1.05026e-05L242.265 -1.05897e-05L242.265 0.999989L244.257 0.999989L244.257 -1.06768e-05L246.25 -1.07639e-05L246.25 0.999989L248.243 0.999989L248.243 -1.08511e-05L250.235 -1.09381e-05L250.235 0.999989L252.228 0.999989L252.228 -1.10253e-05L254.221 -1.11123e-05L254.221 0.999989L256.214 0.999989L256.214 -1.11995e-05L258.207 -1.12866e-05L258.207 0.999989L260.199 0.999989L260.199 -1.13737e-05L262.192 -1.14608e-05L262.192 0.999989L264.185 0.999988L264.185 -1.15479e-05L266.178 -1.1635e-05L266.178 0.999988L268.17 0.999988L268.17 -1.17221e-05L270.163 -1.18092e-05L270.163 0.999988L272.156 0.999988L272.156 -1.18963e-05L274.148 -1.19834e-05L274.148 0.999988L276.142 0.999988L276.142 -1.20705e-05L278.134 -1.21576e-05L278.134 0.999988L280.127 0.999988L280.127 -1.22447e-05L282.119 -1.23318e-05L282.119 0.999988L284.112 0.999988L284.112 -1.24189e-05L286.105 -1.25061e-05L286.105 0.999987L288.098 0.999987L288.098 -1.25931e-05L290.091 -1.26803e-05L290.091 0.999987L292.083 0.999987L292.083 -1.27674e-05L294.076 -1.28545e-05L294.076 0.999987L296.069 0.999987L296.069 -1.29416e-05L298.061 -1.30287e-05L298.061 0.999987L300.055 0.999987L300.055 -1.31158e-05L302.047 -1.32029e-05L302.047 0.999987L304.04 0.999987L304.04 -1.329e-05L306.032 -1.33771e-05L306.032 0.999987L308.025 0.999987L308.025 -1.34642e-05L310.019 -1.35513e-05L310.019 0.999986L312.011 0.999986L312.011 -1.36384e-05L314.004 -1.37255e-05L314.004 0.999986L315 0.999986C315.321 0.999986 315.642 1.00399 315.961 1.0117L315.983 0.0126815C316.641 0.0285515 317.295 0.0611293 317.944 0.108385L317.873 1.10448C318.513 1.15103 319.148 1.21302 319.778 1.29003L319.898 0.299791C320.551 0.37947 321.198 0.475209 321.841 0.585923L321.672 1.56835C322.303 1.67714 322.929 1.8007 323.55 1.93944L323.767 0.966783C324.408 1.11014 325.043 1.26865 325.672 1.44237L325.406 2.40331C326.023 2.57366 326.634 2.75947 327.238 2.95897L327.551 2.0117C328.174 2.21746 328.79 2.4377 329.399 2.67284L329.04 3.6035C329.637 3.83378 330.227 4.07853 330.809 4.3369L331.213 3.42479C331.812 3.69089 332.404 3.97133 332.987 4.26561L332.538 5.15624C333.109 5.44401 333.671 5.74498 334.226 6.05956L334.718 5.19334C335.287 5.51674 335.849 5.85299 336.4 6.20311L335.866 7.04588C336.405 7.38805 336.936 7.74284 337.457 8.11034L338.033 7.29588C338.568 7.67343 339.094 8.0631 339.609 8.46581L338.994 9.25291C339.497 9.64607 339.991 10.0509 340.474 10.4678L341.126 9.7119C341.622 10.1399 342.107 10.5797 342.581 11.0312L341.892 11.7539C342.354 12.1941 342.806 12.6462 343.246 13.1084L343.969 12.4189C344.42 12.893 344.86 13.3782 345.288 13.874L344.532 14.5264C344.949 15.0093 345.355 15.5027 345.748 16.0058L346.534 15.3906C346.937 15.9059 347.327 16.4317 347.704 16.9668L346.89 17.543C347.257 18.0638 347.612 18.5945 347.954 19.1338L348.797 18.5996C349.147 19.1517 349.484 19.7131 349.808 20.2832L348.94 20.7744C349.255 21.3285 349.556 21.8913 349.844 22.4619L350.734 22.0127C351.029 22.5962 351.309 23.1877 351.575 23.7871L350.663 24.1914C350.921 24.7734 351.166 25.3634 351.396 25.9599L352.327 25.6006C352.562 26.2097 352.782 26.8261 352.988 27.4492L352.041 27.7617C352.24 28.3659 352.426 28.9769 352.597 29.5937L353.558 29.3281C353.731 29.9572 353.89 30.5923 354.033 31.2334L353.061 31.4502C353.199 32.0706 353.323 32.6969 353.432 33.3281L354.414 33.1592C354.525 33.8016 354.62 34.449 354.7 35.1015L353.71 35.2217C353.787 35.8522 353.849 36.4874 353.895 37.1269L354.892 37.0556C354.939 37.7051 354.971 38.3588 354.987 39.0166L353.988 39.039C353.996 39.3583 354 39.6789 354 40L354 40.998L355 40.998L355 42.9941L354 42.9941L354 44.9902L355 44.9902L355 46.9873L354 46.9873L354 48.9834L355 48.9834L355 50.9795L354 50.9795L354 52.9765L355 52.9765L355 54.9726L354 54.9726L354 56.9697L355 56.9697L355 58.9658L354 58.9658L354 60.9619L355 60.9619L355 62.959L354 62.959L354 64.9551L355 64.9551L355 66.9512L354 66.9512L354 68.9482L355 68.9482L355 70.9443L354 70.9443L354 72.9414L355 72.9414L355 74.9375L354 74.9375L354 76.9336L355 76.9336L355 78.9306L354 78.9306L354 80.9267L355 80.9267L355 82.9228L354 82.9228L354 84.9199L355 84.9199L355 86.916L354 86.916L354 88.9131L355 88.9131L355 90.9092L354 90.9092L354 92.9053L355 92.9053L355 94.9023L354 94.9023L354 96.8984L355 96.8984L355 98.8945L354 98.8945L354 100.892L355 100.892L355 102.888L354 102.888L354 104.885L355 104.885L355 106.881L354 106.881L354 108.877L355 108.877L355 110.874L354 110.874L354 112.87L355 112.87L355 114.867L354 114.867L354 116.863L355 116.863L355 118.86L354 118.86L354 120.856L355 120.856L355 122.853L354 122.853L354 124.85L355 124.85L355 126.846L354 126.846L354 128.843L355 128.843L355 130.839L354 130.839L354 132.835L355 132.835L355 134.832L354 134.832L354 136.828L355 136.828L355 138.825L354 138.825L354 140.821L355 140.821L355 142.817L354 142.817L354 144.814L355 144.814L355 146.811L354 146.811L354 148.808L355 148.808L355 150.804L354 150.804L354 152.8L355 152.8L355 154.797L354 154.797L354 156.793L355 156.793L355 158.79L354 158.79L354 160.786L355 160.786L355 162.782L354 162.782L354 164.779L355 164.779L355 166.775L354 166.775L354 168.772L355 168.772L355 170.769L354 170.769L354 172.766L355 172.766L355 174.762L354 174.762L354 176.758L355 176.758L355 178.755L354 178.755L354 180.751L355 180.751L355 182.748L354 182.748L354 184.744L355 184.744L355 186.74L354 186.74L354 188.737L355 188.737L355 190.733L354 190.733L354 192.73L355 192.73L355 194.727L354 194.727L354 196.723L355 196.723L355 198.72L354 198.72L354 200.716L355 200.716L355 202.713L354 202.713L354 204.709L355 204.709L355 206.705L354 206.705L354 208.702L355 208.702L355 210.698L354 210.698L354 212.695L355 212.695L355 214.691L354 214.691L354 216.687L355 216.687L355 218.685L354 218.685L354 220.681L355 220.681L355 222.678L354 222.678L354 224.674L355 224.674L355 226.67L354 226.67L354 228.667L355 228.667L355 230.663L354 230.663L354 232.66L355 232.66L355 234.656L354 234.656L354 236.652L355 236.652L355 238.649L354 238.649L354 240.645L355 240.645L355 242.643L354 242.643L354 244.639L355 244.639L355 246.636L354 246.636L354 248.632L355 248.632L355 250.628L354 250.628L354 252.625L355 252.625L355 254.621L354 254.621L354 256.618L355 256.618L355 258.614L354 258.614L354 260.61L355 260.61L355 262.607L354 262.607L354 264.604L355 264.604L355 266.601L354 266.601L354 268.597L355 268.597L355 270.593L354 270.593L354 272.59L355 272.59L355 274.586L354 274.586L354 276.583L355 276.583L355 278.579L354 278.579L354 280.575L355 280.575L355 282.572L354 282.572L354 284.568L355 284.568L355 286.565L354 286.565L354 288.562L355 288.562L355 290.558L354 290.558L354 292.555L355 292.555L355 294.551L354 294.551L354 296.548L355 296.548L355 298.544L354 298.544L354 300.541L355 300.541L355 302.537L354 302.537L354 304.533L355 304.533L355 306.53L354 306.53L354 308.526L355 308.526L355 310.523L354 310.523L354 312.52L355 312.52L355 314.516L354 314.516L354 316.513L355 316.513L355 318.509L354 318.509L354 320.506L355 320.506L355 322.502L354 322.502L354 324.498L355 324.498L355 326.495L354 326.495L354 328.491L355 328.491L355 330.488L354 330.488L354 332.484L355 332.484L355 334.48L354 334.48L354 336.478L355 336.478L355 338.474L354 338.474L354 340.471L355 340.471L355 342.467L354 342.467L354 344.463L355 344.463L355 346.46L354 346.46L354 348.456L355 348.456L355 350.453L354 350.453L354 352.449L355 352.449L355 354.445L354 354.445L354 356.442L355 356.442L355 358.438L354 358.438L354 360.436L355 360.436L355 362.432L354 362.432L354 364.428L355 364.428L355 366.425L354 366.425L354 368.421L355 368.421L355 370.418L354 370.418L354 372.414L355 372.414L355 374.41L354 374.41L354 376.407L355 376.407L355 378.403L354 378.403L354 380.4L355 380.4L355 382.396L354 382.396L354 384.393L355 384.393L355 386.39L354 386.39L354 388.386L355 388.386L355 390.382L354 390.382L354 392.379L355 392.379L355 394.375L354 394.375L354 396.372L355 396.372L355 398.368L354 398.368L354 400.364L355 400.364L355 402.361L354 402.361L354 404.357L355 404.357L355 406.354L354 406.354L354 408.351L355 408.351L355 410.347L354 410.347L354 412.344L355 412.344L355 414.34L354 414.34L354 416.337L355 416.337L355 418.333L354 418.333L354 420.329L355 420.329L355 422.326L354 422.326L354 424.322L355 424.322L355 426.319L354 426.319L354 428.315L355 428.315L355 430.312L354 430.312L354 432.309L355 432.309L355 434.305L354 434.305L354 436.301L355 436.301L355 438.298L354 438.298L354 440.294L355 440.294L355 442.291L354 442.291L354 444.287L355 444.287L355 446.283L354 446.283L354 448.28L355 448.28L355 450.276L354 450.276L354 452.273L355 452.273L355 454.27L354 454.27L354 456.266L355 456.266L355 458.263L354 458.263L354 460.259L355 460.259L355 462.256L354 462.256L354 464.252L355 464.252L355 466.248L354 466.248L354 468.245L355 468.245L355 470.241L354 470.241L354 472.238L355 472.238L355 474.234L354 474.234L354 476.23L355 476.23L355 478.228L354 478.228L354 480.224L355 480.224L355 482.22L354 482.22L354 484.217L355 484.217L355 486.213L354 486.213L354 488.21L355 488.21L355 490.206L354 490.206L354 492.202L355 492.202L355 494.199L354 494.199L354 496.195L355 496.195L355 498.192L354 498.192L354 500.188L355 500.188L355 502.185L354 502.185L354 504.182L355 504.182L355 506.178L354 506.178L354 508.175L355 508.175L355 510.171L354 510.171L354 512.167L355 512.167L355 514.164L354 514.164L354 516.16L355 516.16L355 518.156L354 518.156L354 520.153L355 520.153L355 522.149L354 522.149L354 524.146L355 524.146L355 526.143L354 526.143L354 528.139L355 528.139L355 530.136L354 530.136L354 532.132L355 532.132L355 534.129L354 534.129L354 536.125L355 536.125L355 538.121L354 538.121L354 540.118L355 540.118L355 542.114L354 542.114L354 544.111L355 544.111L355 546.107L354 546.107L354 548.104L355 548.104L355 550.101L354 550.101L354 552.097L355 552.097L355 554.094L354 554.094L354 556.09L355 556.09L355 558.086L354 558.086L354 560.083L355 560.083L355 562.079L354 562.079L354 564.076L355 564.076L355 566.072L354 566.072L354 568.068L355 568.068L355 570.065L354 570.065L354 572.062L355 572.062L355 574.059L354 574.059L354 576.055L355 576.055L355 578.051L354 578.051L354 580.048L355 580.048L355 582.044L354 582.044L354 584.04L355 584.04L355 586.037L354 586.037L354 588.033L355 588.033L355 590.03L354 590.03L354 592.026L355 592.026L355 594.022L354 594.022L354 596.02L355 596.02L355 598.016L354 598.016L354 600.013L355 600.013L355 602.009L354 602.009L354 604.005L355 604.005L355 606.002L354 606.002L354 607C354 607.321 353.996 607.642 353.988 607.961L354.987 607.984C354.971 608.642 354.939 609.296 354.892 609.945L353.896 609.873C353.849 610.513 353.787 611.148 353.71 611.778L354.7 611.899C354.62 612.552 354.525 613.199 354.414 613.842L353.432 613.672C353.323 614.303 353.199 614.929 353.061 615.55L354.033 615.768C353.89 616.409 353.731 617.044 353.558 617.673L352.597 617.406C352.426 618.023 352.241 618.634 352.041 619.238L352.988 619.552C352.783 620.175 352.562 620.791 352.327 621.4L351.396 621.04C351.166 621.637 350.921 622.227 350.663 622.809L351.575 623.214C351.309 623.813 351.029 624.405 350.734 624.988L349.844 624.538C349.556 625.109 349.255 625.671 348.94 626.226L349.808 626.718C349.484 627.288 349.147 627.849 348.797 628.401L347.954 627.866C347.612 628.405 347.257 628.936 346.89 629.457L347.704 630.034C347.327 630.569 346.937 631.095 346.534 631.61L345.748 630.994C345.355 631.497 344.949 631.991 344.532 632.474L345.288 633.127C344.86 633.623 344.42 634.108 343.969 634.582L343.246 633.892C342.806 634.354 342.354 634.806 341.892 635.246L342.581 635.97C342.107 636.421 341.622 636.861 341.126 637.289L340.474 636.532C339.991 636.949 339.497 637.354 338.994 637.747L339.609 638.535C339.094 638.938 338.568 639.328 338.033 639.705L337.457 638.89C336.936 639.257 336.405 639.612 335.866 639.954L336.4 640.798C335.849 641.148 335.287 641.484 334.718 641.808L334.226 640.94C333.671 641.255 333.109 641.556 332.538 641.844L332.987 642.735C332.404 643.03 331.812 643.31 331.213 643.576L330.809 642.663C330.227 642.921 329.637 643.166 329.04 643.396L329.399 644.328C328.79 644.563 328.174 644.783 327.551 644.989L327.238 644.041C326.634 644.24 326.023 644.426 325.406 644.597L325.672 645.559C325.043 645.732 324.408 645.891 323.767 646.034L323.55 645.061C322.929 645.199 322.303 645.323 321.672 645.432L321.841 646.415C321.198 646.526 320.551 646.621 319.898 646.701L319.778 645.71C319.148 645.787 318.513 645.849 317.873 645.895L317.944 646.893C317.295 646.94 316.641 646.972 315.983 646.988L315.961 645.988C315.642 645.996 315.321 646 315 646L314.004 646L314.004 647L312.011 647L312.011 646L310.018 646L310.018 647L308.025 647L308.025 646L306.032 646L306.032 647L304.04 647L304.04 646L302.047 646L302.047 647L300.055 647L300.055 646L298.062 646L298.062 647L296.068 647L296.068 646L294.076 646L294.076 647L292.083 647L292.083 646L290.091 646L290.091 647L288.098 647L288.098 646L286.104 646L286.104 647L284.112 647L284.112 646L282.119 646L282.119 647L280.127 647L280.127 646L278.134 646L278.134 647L276.142 647L276.142 646L274.148 646L274.148 647L272.155 647L272.155 646L270.163 646L270.163 647L268.17 647L268.17 646L266.178 646L266.178 647L264.185 647L264.185 646L262.192 646L262.192 647L260.199 647L260.199 646L258.206 646L258.206 647L256.214 647L256.214 646L254.221 646L254.221 647L252.229 647L252.229 646L250.235 646L250.235 647L248.242 647L248.242 646L246.25 646L246.25 647L244.257 647L244.257 646L242.265 646L242.265 647L240.271 647L240.271 646L238.279 646L238.279 647L236.286 647L236.286 646L234.293 646L234.293 647L232.301 647L232.301 646L230.308 646L230.308 647L228.315 647L228.315 646L226.322 646L226.322 647L224.33 647L224.33 646L222.337 646L222.337 647L220.344 647L220.344 646L218.352 646L218.352 647L216.358 647L216.358 646L214.366 646L214.366 647L212.373 647L212.373 646L210.38 646L210.38 647L208.388 647L208.388 646L206.395 646L206.395 647L204.402 647L204.402 646L202.409 646L202.409 647L200.417 647L200.417 646L198.424 646L198.424 647L196.431 647L196.431 646L194.438 646L194.438 647L192.445 647L192.445 646L190.453 646L190.453 647L188.46 647L188.46 646L186.468 646L186.468 647L184.475 647L184.475 646L182.481 646L182.481 647L180.489 647L180.489 646L178.496 646L178.496 647L176.504 647L176.504 646L174.511 646L174.511 647L172.518 647L172.518 646L170.525 646L170.525 647L168.532 647L168.532 646L166.54 646L166.54 647L164.547 647L164.547 646L162.555 646L162.555 647L160.562 647L160.562 646L158.568 646L158.568 647L156.576 647L156.576 646L154.583 646L154.583 647L152.591 647L152.591 646L150.598 646L150.598 647L148.605 647L148.605 646L146.612 646L146.612 647L144.619 647L144.619 646L142.627 646L142.627 647L140.634 647L140.634 646L138.642 646L138.642 647L136.648 647L136.648 646L134.655 646L134.655 647L132.663 647L132.663 646L130.67 646L130.67 647L128.678 647L128.678 646L126.685 646L126.685 647L124.692 647L124.692 646L122.699 646L122.699 647L120.706 647L120.706 646L118.714 646L118.714 647L116.721 647L116.721 646L114.729 646L114.729 647L112.735 647L112.735 646L110.743 646L110.743 647L108.75 647L108.75 646L106.757 646L106.757 647L104.765 647L104.765 646L102.771 646L102.771 647L100.779 647L100.779 646L98.7861 646L98.7861 647L96.7939 647L96.7939 646L94.8008 646L94.8008 647L92.8076 647L92.8076 646L90.8154 646L90.8154 647L88.8223 647L88.8223 646L86.8301 646L86.8301 647L84.8369 647L84.8369 646L82.8437 646L82.8438 647L80.8516 647L80.8516 646L78.8584 646L78.8584 647L76.8662 647L76.8662 646L74.873 646L74.873 647L72.8809 647L72.8809 646L70.8877 646L70.8877 647L68.8945 647L68.8945 646L66.9023 646L66.9023 647L64.9092 647L64.9092 646L62.917 646L62.917 647L60.9238 647L60.9238 646L58.9316 646L58.9316 647L56.9385 647L56.9385 646L54.9453 646L54.9453 647L52.9531 647L52.9531 646L50.96 646L50.96 647L48.9678 647L48.9678 646L46.9746 646L46.9746 647L44.9814 647L44.9814 646L42.9893 646L42.9893 647L40.9961 647L40.9961 646L40 646C39.6789 646 39.3583 645.996 39.0391 645.988L39.0156 646.988C38.3579 646.972 37.7042 646.94 37.0547 646.893L37.127 645.896C36.4874 645.849 35.8522 645.787 35.2217 645.71L35.1006 646.701C34.4481 646.621 33.8006 646.526 33.1582 646.415L33.3281 645.432C32.6969 645.323 32.0706 645.199 31.4502 645.061L31.2324 646.034C30.5914 645.891 29.9562 645.732 29.3271 645.559L29.5937 644.597C28.9769 644.426 28.3659 644.241 27.7617 644.041L27.4482 644.989C26.8251 644.783 26.2087 644.563 25.5996 644.328L25.96 643.396C25.3634 643.166 24.7734 642.921 24.1914 642.663L23.7861 643.576C23.1867 643.31 22.5952 643.03 22.0117 642.735L22.4619 641.844C21.8913 641.556 21.3285 641.255 20.7744 640.94L20.2822 641.809C19.7122 641.485 19.1508 641.148 18.5986 640.798L19.1338 639.954C18.5946 639.612 18.0639 639.257 17.543 638.89L16.9658 639.705C16.4308 639.328 15.9049 638.938 15.3896 638.535L16.0059 637.747C15.5028 637.354 15.0092 636.949 14.5264 636.532L13.873 637.289C13.614 637.065 13.3577 636.839 13.1045 636.608L12.418 635.97L13.1084 635.246C12.6462 634.806 12.1941 634.354 11.7539 633.892L11.0303 634.582C10.5788 634.108 10.1389 633.623 9.71094 633.127L10.4678 632.474C10.0509 631.991 9.64609 631.497 9.25293 630.994L8.46484 631.61C8.06215 631.095 7.67246 630.569 7.29492 630.034L8.11035 629.457C7.74285 628.936 7.38807 628.405 7.0459 627.866L6.20215 628.401C5.8518 627.849 5.515 627.288 5.19141 626.718L6.05957 626.226C5.74499 625.671 5.44402 625.109 5.15625 624.538L4.26465 624.988C3.97037 624.405 3.68993 623.813 3.42383 623.214L4.33691 622.809C4.07854 622.227 3.8338 621.637 3.60351 621.04L2.67187 621.4C2.43673 620.791 2.2165 620.175 2.01074 619.552L2.95898 619.238C2.75949 618.634 2.57367 618.023 2.40332 617.406L1.4414 617.673C1.26768 617.044 1.10918 616.409 0.965819 615.768L1.93945 615.55C1.80071 614.929 1.67715 614.303 1.56836 613.672L0.584959 613.842C0.474235 613.199 0.378518 612.552 0.298827 611.899L1.29004 611.778C1.21303 611.148 1.15104 610.513 1.10449 609.873L0.10742 609.945C0.060151 609.296 0.0276026 608.642 0.011717 607.984L1.01172 607.961C1.004 607.642 0.999998 607.321 0.999998 607L0.999998 606.002L-1.79208e-06 606.002L-1.87933e-06 604.006L0.999998 604.006L0.999998 602.01L-1.96659e-06 602.01L-2.05388e-06 600.013L0.999998 600.013L0.999998 598.017L-2.14113e-06 598.017L-2.22843e-06 596.02L0.999998 596.02L0.999998 594.023L-2.31568e-06 594.023L-2.40293e-06 592.027L0.999998 592.027L0.999998 590.03L-2.49023e-06 590.03L-2.57748e-06 588.034L0.999997 588.034L0.999997 586.038L-2.66473e-06 586.038L-2.75202e-06 584.041L0.999997 584.041L0.999997 582.045L-2.83928e-06 582.045L-2.92657e-06 580.048L0.999997 580.048L0.999997 578.052L-3.01382e-06 578.052L-3.10108e-06 576.056L0.999997 576.056L0.999997 574.059L-3.18837e-06 574.059L-3.27562e-06 572.062L0.999997 572.062L0.999997 570.066L-3.36287e-06 570.066L-3.45017e-06 568.069L0.999997 568.069L0.999996 566.073L-3.53742e-06 566.073L-3.62472e-06 564.076L0.999996 564.076L0.999996 562.08L-3.71197e-06 562.08L-3.79922e-06 560.084L0.999996 560.084L0.999996 558.087L-3.88651e-06 558.087L-3.97377e-06 556.091L0.999996 556.091L0.999996 554.095L-4.06102e-06 554.095L-4.14831e-06 552.098L0.999996 552.098L0.999996 550.102L-4.23557e-06 550.102L-4.32286e-06 548.104L0.999996 548.104L0.999996 546.108L-4.41011e-06 546.108L-4.49736e-06 544.112L0.999996 544.112L0.999995 542.115L-4.58466e-06 542.115L-4.67191e-06 540.119L0.999995 540.119L0.999995 538.122L-4.75921e-06 538.122L-4.84646e-06 536.126L0.999995 536.126L0.999995 534.13L-4.93371e-06 534.13L-5.021e-06 532.133L0.999995 532.133L0.999995 530.137L-5.10826e-06 530.137L-5.19555e-06 528.14L0.999995 528.14L0.999995 526.144L-5.2828e-06 526.144L-5.37006e-06 524.147L0.999995 524.147L0.999995 522.15L-5.45735e-06 522.15L-5.5446e-06 520.154L0.999994 520.154L0.999994 518.157L-5.6319e-06 518.157L-5.71915e-06 516.161L0.999994 516.161L0.999994 514.165L-5.8064e-06 514.165L-5.8937e-06 512.168L0.999994 512.168L0.999994 510.172L-5.98095e-06 510.172L-6.06824e-06 508.175L0.999994 508.175L0.999994 506.179L-6.15549e-06 506.179L-6.24275e-06 504.183L0.999994 504.183L0.999994 502.186L-6.33004e-06 502.186L-6.41729e-06 500.189L0.999994 500.189L0.999993 498.192L-6.50459e-06 498.192L-6.59184e-06 496.196L0.999993 496.196L0.999993 494.199L-6.67913e-06 494.199L-6.76639e-06 492.203L0.999993 492.203L0.999993 490.207L-6.85364e-06 490.207L-6.94093e-06 488.21L0.999993 488.21L0.999993 486.214L-7.02819e-06 486.214L-7.11548e-06 484.217L0.999993 484.217L0.999993 482.221L-7.20273e-06 482.221L-7.28998e-06 480.225L0.999993 480.225L0.999993 478.228L-7.37728e-06 478.228L-7.46453e-06 476.231L0.999993 476.231L0.999992 474.234L-7.55183e-06 474.234L-7.63908e-06 472.238L0.999992 472.238L0.999992 470.242L-7.72633e-06 470.242L-7.81362e-06 468.245L0.999992 468.245L0.999992 466.249L-7.90088e-06 466.249L-7.98817e-06 464.252L0.999992 464.252L0.999992 462.256L-8.07542e-06 462.256L-8.16267e-06 460.26L0.999992 460.26L0.999992 458.263L-8.24997e-06 458.263L-8.33722e-06 456.267L0.999992 456.267L0.999992 454.27L-8.42452e-06 454.27L-8.51177e-06 452.273L0.999991 452.273L0.999991 450.277L-8.59902e-06 450.277L-8.68632e-06 448.28L0.999991 448.28L0.999991 446.284L-8.77357e-06 446.284L-8.86086e-06 444.287L0.999991 444.287L0.999991 442.291L-8.94811e-06 442.291L-9.03537e-06 440.295L0.999991 440.295L0.999991 438.298L-9.12266e-06 438.298L-9.20991e-06 436.302L0.999991 436.302L0.999991 434.305L-9.29721e-06 434.305L-9.38446e-06 432.309L0.999991 432.309L0.999991 430.312L-9.47171e-06 430.312L-9.55901e-06 428.315L0.99999 428.315L0.99999 426.319L-9.64626e-06 426.319L-9.73355e-06 424.322L0.99999 424.322L0.99999 422.326L-9.8208e-06 422.326L-9.9081e-06 420.329L0.99999 420.329L0.99999 418.333L-9.99535e-06 418.333L-1.00826e-05 416.337L0.99999 416.337L0.99999 414.34L-1.01699e-05 414.34L-1.02572e-05 412.344L0.99999 412.344L0.99999 410.347L-1.03444e-05 410.347L-1.04317e-05 408.351L0.99999 408.351L0.999989 406.354L-1.05189e-05 406.354L-1.06062e-05 404.357L0.999989 404.357L0.999989 402.361L-1.06935e-05 402.361L-1.07808e-05 400.364L0.999989 400.364L0.999989 398.368L-1.0868e-05 398.368L-1.09553e-05 396.372L0.999989 396.372L0.999989 394.375L-1.10426e-05 394.375L-1.11298e-05 392.379L0.999989 392.379L0.999989 390.382L-1.12171e-05 390.382L-1.13044e-05 388.386L0.999989 388.386L0.999989 386.39L-1.13916e-05 386.39L-1.14789e-05 384.393L0.999989 384.393L0.999988 382.396L-1.15662e-05 382.396L-1.16535e-05 380.399L0.999988 380.399L0.999988 378.403L-1.17407e-05 378.403L-1.1828e-05 376.407L0.999988 376.407L0.999988 374.41L-1.19153e-05 374.41L-1.20025e-05 372.414L0.999988 372.414L0.999988 370.417L-1.20898e-05 370.417L-1.21771e-05 368.421L0.999988 368.421L0.999988 366.425L-1.22643e-05 366.425L-1.23516e-05 364.428L0.999988 364.428L0.999988 362.432L-1.24389e-05 362.432L-1.25262e-05 360.435L0.999987 360.435L0.999987 358.438L-1.26134e-05 358.438L-1.27007e-05 356.441L0.999987 356.441L0.999987 354.445L-1.2788e-05 354.445L-1.28752e-05 352.449L0.999987 352.449L0.999987 350.452L-1.29625e-05 350.452L-1.30498e-05 348.456L0.999987 348.456L0.999987 346.459L-1.31371e-05 346.459L-1.32243e-05 344.463L0.999987 344.463L0.999987 342.467L-1.33116e-05 342.467L-1.33989e-05 340.47L0.999987 340.47L0.999987 338.474L-1.34861e-05 338.474L-1.35734e-05 336.477L0.999986 336.477L0.999986 334.48L-1.36607e-05 334.48L-1.37479e-05 332.484L0.999986 332.484L0.999986 330.487L-1.38352e-05 330.487L-1.39225e-05 328.491L0.999986 328.491L0.999986 326.494L-1.40098e-05 326.494L-1.4097e-05 324.498L0.999986 324.498L0.999986 322.502L-1.41843e-05 322.502L-1.42716e-05 320.505L0.999986 320.505L0.999986 318.509L-1.43588e-05 318.509L-1.44461e-05 316.512L0.999986 316.512L0.999985 314.516L-1.45334e-05 314.516L-1.46206e-05 312.52L0.999985 312.52L0.999985 310.522L-1.47079e-05 310.522L-1.47952e-05 308.526L0.999985 308.526L0.999985 306.529L-1.48824e-05 306.529L-1.49697e-05 304.533L0.999985 304.533L0.999985 302.536L-1.5057e-05 302.536L-1.51442e-05 300.54L0.999985 300.54L0.999985 298.544L-1.52315e-05 298.544L-1.53188e-05 296.547L0.999985 296.547L0.999985 294.551L-1.5406e-05 294.551L-1.54933e-05 292.554L0.999985 292.554L0.999984 290.558L-1.55806e-05 290.558L-1.56678e-05 288.562L0.999984 288.562L0.999984 286.564L-1.57551e-05 286.564L-1.58424e-05 284.568L0.999984 284.568L0.999984 282.572L-1.59296e-05 282.572L-1.60169e-05 280.575L0.999984 280.575L0.999984 278.579L-1.61042e-05 278.579L-1.61915e-05 276.582L0.999984 276.582L0.999984 274.586L-1.62787e-05 274.586L-1.6366e-05 272.59L0.999984 272.59L0.999984 270.593L-1.64533e-05 270.593L-1.65405e-05 268.597L0.999983 268.597L0.999983 266.6L-1.66278e-05 266.6L-1.67151e-05 264.604L0.999983 264.604L0.999983 262.607L-1.68023e-05 262.607L-1.68896e-05 260.61L0.999983 260.61L0.999983 258.614L-1.69769e-05 258.614L-1.70642e-05 256.617L0.999983 256.617L0.999983 254.621L-1.71514e-05 254.621L-1.72387e-05 252.625L0.999983 252.625L0.999983 250.628L-1.7326e-05 250.628L-1.74132e-05 248.632L0.999983 248.632L0.999982 246.636L-1.75005e-05 246.636L-1.75878e-05 244.639L0.999982 244.639L0.999982 242.643L-1.7675e-05 242.643L-1.77623e-05 240.646L0.999982 240.646L0.999982 238.649L-1.78496e-05 238.649L-1.79368e-05 236.653L0.999982 236.653L0.999982 234.656L-1.80241e-05 234.656L-1.81114e-05 232.66L0.999982 232.66L0.999982 230.663L-1.81987e-05 230.663L-1.82859e-05 228.667L0.999982 228.667L0.999982 226.671L-1.83732e-05 226.671L-1.84605e-05 224.674L0.999982 224.674L0.999981 222.678L-1.85477e-05 222.678L-1.8635e-05 220.681L0.999981 220.681L0.999981 218.685L-1.87223e-05 218.685L-1.88095e-05 216.688L0.999981 216.688L0.999981 214.691L-1.88968e-05 214.691L-1.89841e-05 212.695L0.999981 212.695L0.999981 210.698L-1.90714e-05 210.698L-1.91586e-05 208.702L0.999981 208.702L0.999981 206.706L-1.92459e-05 206.706L-1.93332e-05 204.709L0.999981 204.709L0.999981 202.713L-1.94204e-05 202.713L-1.95077e-05 200.717L0.99998 200.717L0.99998 198.72L-1.9595e-05 198.72L-1.96822e-05 196.724L0.99998 196.724L0.99998 194.727L-1.97695e-05 194.727L-1.98568e-05 192.73L0.99998 192.73L0.99998 190.734L-1.9944e-05 190.734L-2.00313e-05 188.737L0.99998 188.737L0.99998 186.741L-2.01186e-05 186.741L-2.02058e-05 184.744L0.99998 184.744L0.99998 182.748L-2.02931e-05 182.748L-2.03803e-05 180.752L0.99998 180.752L0.99998 178.755L-2.04676e-05 178.755L-2.05549e-05 176.759L0.999979 176.759L0.999979 174.762L-2.06422e-05 174.762L-2.07294e-05 172.766L0.999979 172.766L0.999979 170.77L-2.08167e-05 170.77L-2.0904e-05 168.772L0.999979 168.772L0.999979 166.776L-2.09912e-05 166.776L-2.10785e-05 164.779L0.999979 164.779L0.999979 162.783L-2.11658e-05 162.783L-2.1253e-05 160.787L0.999979 160.787L0.999979 158.79L-2.13403e-05 158.79L-2.14276e-05 156.794L0.999979 156.794L0.999978 154.798L-2.15148e-05 154.798L-2.16021e-05 152.801L0.999978 152.801L0.999978 150.805L-2.16894e-05 150.805L-2.17767e-05 148.808L0.999978 148.808L0.999978 146.812L-2.18639e-05 146.812L-2.19512e-05 144.815L0.999978 144.815L0.999978 142.818L-2.20385e-05 142.818L-2.21257e-05 140.822L0.999978 140.822L0.999978 138.825L-2.2213e-05 138.825L-2.23003e-05 136.829L0.999978 136.829L0.999978 134.833L-2.23875e-05 134.833L-2.24748e-05 132.836L0.999978 132.836L0.999977 130.84L-2.25621e-05 130.84L-2.26494e-05 128.843L0.999977 128.843L0.999977 126.847L-2.27366e-05 126.847L-2.28239e-05 124.851L0.999977 124.851L0.999977 122.854L-2.29112e-05 122.854L-2.29984e-05 120.857L0.999977 120.857L0.999977 118.861L-2.30857e-05 118.861L-2.3173e-05 116.864L0.999977 116.864L0.999977 114.868L-2.32602e-05 114.868L-2.33475e-05 112.871L0.999977 112.871L0.999977 110.875L-2.34348e-05 110.875L-2.3522e-05 108.879L0.999976 108.879L0.999976 106.882L-2.36093e-05 106.882L-2.36966e-05 104.886L0.999976 104.886L0.999976 102.889L-2.37839e-05 102.889L-2.38711e-05 100.893L0.999976 100.893L0.999976 98.8965L-2.39584e-05 98.8965L-2.40457e-05 96.8994L0.999976 96.8994L0.999976 94.9033L-2.41329e-05 94.9033L-2.42202e-05 92.9062L0.999976 92.9062L0.999976 90.9102L-2.43075e-05 90.9102L-2.43947e-05 88.9141L0.999976 88.9141L0.999976 86.917L-2.4482e-05 86.917L-2.45693e-05 84.9209L0.999975 84.9209L0.999975 82.9238L-2.46566e-05 82.9238L-2.47438e-05 80.9277L0.999975 80.9277L0.999975 78.9316L-2.48311e-05 78.9316L-2.49184e-05 76.9346L0.999975 76.9346L0.999975 74.9385L-2.50056e-05 74.9385L-2.50929e-05 72.9414L0.999975 72.9414L0.999975 70.9453L-2.51802e-05 70.9453L-2.52674e-05 68.9492L0.999975 68.9492L0.999975 66.9521L-2.53547e-05 66.9521L-2.54419e-05 64.9561L0.999975 64.9561L0.999974 62.959L-2.55292e-05 62.959L-2.56165e-05 60.9629L0.999974 60.9629L0.999974 58.9668L-2.57037e-05 58.9668L-2.5791e-05 56.9697L0.999974 56.9697L0.999974 54.9736L-2.58783e-05 54.9736L-2.59655e-05 52.9775L0.999974 52.9775L0.999974 50.9805L-2.60528e-05 50.9805L-2.61401e-05 48.9844L0.999974 48.9844L0.999974 46.9873L-2.62274e-05 46.9873L-2.63146e-05 44.9912L0.999974 44.9912L0.999974 42.9951L-2.64019e-05 42.9951L-2.64892e-05 40.998L0.999974 40.998L0.999973 40C0.999973 39.6789 1.00398 39.3583 1.01169 39.0391L0.0116922 39.0166C0.0275609 38.3589 0.0601426 37.7051 0.107395 37.0557L1.10447 37.127C1.15102 36.4874 1.21301 35.8522 1.29001 35.2217L0.298801 35.1016C0.378477 34.4491 0.474225 33.8016 0.584934 33.1592L1.56833 33.3281C1.67712 32.6969 1.80069 32.0706 1.93943 31.4502L0.965793 31.2334C1.10914 30.5923 1.26767 29.9572 1.44138 29.3281L2.40329 29.5937C2.57364 28.9769 2.75946 28.3659 2.95896 27.7617L2.01072 27.4492C2.21646 26.8261 2.43672 26.2097 2.67185 25.6006L3.60349 25.96C3.83377 25.3634 4.07852 24.7734 4.33689 24.1914L3.4238 23.7871C3.68989 23.1877 3.97036 22.5962 4.26462 22.0127L5.15622 22.4619C5.44399 21.8913 5.74497 21.3285 6.05954 20.7744L5.19236 20.2822C5.51574 19.7126 5.85202 19.1514 6.20212 18.5996L7.04587 19.1338C7.38804 18.5946 7.74283 18.0638 8.11032 17.543L7.29489 16.9668C7.67243 16.4317 8.06213 15.9059 8.46482 15.3906L9.2529 16.0059C9.64606 15.5028 10.0509 15.0092 10.4677 14.5264L9.71091 13.874C10.1389 13.3783 10.5788 12.893 11.0302 12.4189L11.0302 12.418L11.7539 13.1084C12.1941 12.6462 12.6461 12.1941 13.1084 11.7539L12.4179 11.0312Z" fill="white" stroke="#B40082" stroke-width="2" stroke-linejoin="round" stroke-dasharray="2 2"/>
</svg>
