<svg width="424" height="212" viewBox="0 0 424 212" fill="none" xmlns="http://www.w3.org/2000/svg">
<path d="M212 0C268.226 8.66494e-07 322.149 22.336 361.906 62.0938C401.664 101.851 424 155.774 424 212H419.647C419.362 160.78 398.892 111.72 362.653 75.4805C326.158 38.9849 276.658 18.4824 225.046 18.4824C173.434 18.4825 123.935 38.985 87.4395 75.4805C51.2002 111.72 30.7301 160.78 30.4443 212H0C3.57445e-06 155.774 22.336 101.851 62.0938 62.0938C101.851 22.336 155.774 6.70487e-07 212 0Z" fill="url(#paint0_linear_438_3083)"/>
<defs>
<linearGradient id="paint0_linear_438_3083" x1="212" y1="0" x2="212" y2="212" gradientUnits="userSpaceOnUse">
<stop stop-color="#B40082"/>
<stop offset="1" stop-color="#F0051E"/>
</linearGradient>
</defs>
</svg>
