<svg width="19" height="21" viewBox="0 0 19 21" fill="none" xmlns="http://www.w3.org/2000/svg">
<path d="M14.9491 0.515165C16.6816 0.515165 18.0886 1.92196 18.0886 3.65454C18.0886 5.38712 16.6816 6.79392 14.9491 6.79392C13.2165 6.79392 11.8095 5.38712 11.8095 3.65454C11.8095 1.92196 13.2165 0.515165 14.9491 0.515165Z" stroke="#E4E4E4"/>
<path d="M14.9491 14.2063C16.6816 14.2063 18.0886 15.6131 18.0886 17.3456C18.0886 19.0782 16.6816 20.485 14.9491 20.485C13.2165 20.485 11.8095 19.0782 11.8095 17.3456C11.8095 15.6131 13.2165 14.2063 14.9491 14.2063Z" stroke="#E4E4E4"/>
<path d="M3.65464 7.45781C5.38723 7.45781 6.79415 8.86492 6.79415 10.5975C6.79415 12.3301 5.38723 13.7369 3.65464 13.7369C1.92205 13.7369 0.515165 12.3301 0.515165 10.5975C0.515165 8.86492 1.92205 7.45781 3.65464 7.45781Z" stroke="#E4E4E4"/>
<path d="M5.39917 8.67033L11.9127 4.76225" stroke="#E4E4E4"/>
<path d="M5.39917 12.5803L11.9127 16.4884" stroke="#E4E4E4"/>
</svg>
