<svg width="58" height="39" viewBox="0 0 58 39" fill="none" xmlns="http://www.w3.org/2000/svg">
<mask id="mask0_1392_426" style="mask-type:luminance" maskUnits="userSpaceOnUse" x="-2" y="-6" width="67" height="46">
<path d="M64.8572 -5.57171H-1.25207V39.0028H64.8572V-5.57171Z" fill="white"/>
</mask>
<g mask="url(#mask0_1392_426)">
<path d="M11.027 8.96903C9.97256 10.3852 9.09941 11.9283 8.44335 13.5671C7.85648 15.03 7.44138 16.5709 7.2219 18.1652H51.3208C51.1013 16.5709 50.6862 15.03 50.1017 13.5671C49.4457 11.9283 48.5773 10.3852 47.5252 8.96903C46.2298 7.22554 44.6577 5.67356 42.8708 4.37095C39.1134 1.63438 34.4017 0 29.2869 0C24.172 0 19.4532 1.63438 15.691 4.37095C13.8994 5.67356 12.3248 7.22554 11.027 8.96903Z" fill="#E30D2A"/>
<path d="M18.5633 13.5673H8.44335C7.85648 15.0303 7.44138 16.5711 7.2219 18.1654H17.1391C17.3633 16.5466 17.8524 14.9991 18.5633 13.5673Z" fill="#F39200"/>
<path d="M22.0171 8.96892H11.0263C9.97187 10.3851 9.09872 11.9282 8.44266 13.567H18.5626C19.4167 11.848 20.5928 10.2916 22.0171 8.96892Z" fill="#EA5B0C"/>
<path d="M50.1017 13.5671C49.4457 11.9283 48.5773 10.3852 47.5252 8.96903C46.2298 7.22554 44.6576 5.67356 42.8708 4.37095C39.1134 1.63438 34.4017 0 29.2868 0C24.172 0 19.4532 1.63438 15.691 4.37095C13.8993 5.67356 12.3248 7.22554 11.027 8.96903H22.0177C25.0714 6.13225 29.2701 4.37095 33.8959 4.37095C38.5217 4.37095 42.7133 6.13225 45.7598 8.96903C47.1817 10.2917 48.353 11.8459 49.2047 13.5671C49.9133 14.9988 50.4023 16.5464 50.6266 18.1652H51.3208C51.1013 16.5709 50.6862 15.03 50.1017 13.5671Z" fill="#E40428"/>
<path d="M45.7589 8.96892H22.0144C20.5902 10.2916 19.414 11.848 18.56 13.567H49.2038C48.3521 11.848 47.1783 10.2916 45.7589 8.96892Z" fill="#F39200"/>
<path d="M17.1387 18.1654H50.6286C50.4043 16.5466 49.9176 14.9991 49.2067 13.5673H18.5629C17.852 14.9991 17.3629 16.5466 17.1387 18.1654Z" fill="#FFDE00"/>
<path d="M33.896 4.3705C29.2702 4.3705 25.0715 6.1318 22.0178 8.96858H45.7623C42.7134 6.1318 38.5242 4.3705 33.8984 4.3705" fill="#EA5B0C"/>
<path d="M18.1424 23.5076C18.1424 22.6837 19.0895 22.3208 20.3634 22.3208C21.3988 22.3208 22.7347 22.6036 23.6842 22.9443L24.3498 20.4771C24.283 20.4549 23.6771 20.2656 23.6055 20.2455C22.5296 19.9383 20.9837 19.7445 19.9531 19.7445C17.1929 19.7445 14.4327 20.8913 14.4327 23.9908C14.4327 28.8605 21.1817 27.1705 21.1817 29.2435C21.1817 30.0897 20.2537 30.3301 19.1968 30.3301C17.9038 30.3301 16.1145 29.887 14.8835 29.2435L14.1177 31.8465C14.0843 31.8354 14.5663 32.0647 14.9241 32.2072C16.3293 32.7617 18.1066 32.9665 19.5833 32.9665C22.322 32.9665 24.8651 31.7797 24.8651 28.7603C24.8651 23.9106 18.1376 25.4604 18.1376 23.5076" fill="white"/>
<path d="M29.6536 23.5076C29.6536 22.6837 30.6031 22.3208 31.8746 22.3208C32.91 22.3208 34.246 22.6036 35.1955 22.9443L35.8611 20.4771C35.7943 20.4549 35.1883 20.2656 35.1167 20.2455C34.0408 19.9383 32.4949 19.7445 31.4643 19.7445C28.7041 19.7445 25.9439 20.8913 25.9439 23.9908C25.9439 28.8605 32.6929 27.1705 32.6929 29.2435C32.6929 30.0897 31.7649 30.3301 30.708 30.3301C29.415 30.3301 27.6258 29.887 26.3948 29.2435L25.629 31.8465C25.5956 31.8354 26.0775 32.0647 26.4353 32.2072C27.8405 32.7617 29.6178 32.9665 31.0945 32.9665C33.8332 32.9665 36.3764 31.7797 36.3764 28.7603C36.3764 23.9106 29.6488 25.4604 29.6488 23.5076" fill="white"/>
<path d="M52.6661 19.1672V19.3075H57.843V18.3634L52.6661 19.1672Z" fill="white"/>
<path d="M39.0582 19.9852V22.4612H40.3727L36.7942 32.724H40.48L41.0407 30.9382H45.9551L46.5826 32.724H50.5284L45.614 19.9852H39.0606H39.0582ZM41.9258 28.0346L42.8729 24.9551C43.1114 24.1914 43.3261 23.4877 43.3261 23.4877C43.3261 23.4877 43.6053 24.2493 43.8653 24.9751L44.9221 28.0346L45.0748 28.4621H41.7969L41.9258 28.0346Z" fill="white"/>
<path d="M51.3114 19.9852V22.4612H52.6497V30.2479H51.3114V32.724H57.8433V30.858V30.2479H56.4214V22.4612H57.8433V22.1807V19.9852H51.3114Z" fill="white"/>
<path d="M9.16093 30.9382L9.78836 32.724H13.7342L8.81978 19.9852H2.26399V22.4612H3.57849L0 32.724H3.68584L4.24647 30.9382H9.16093ZM5.13155 28.0346L6.07866 24.9551C6.31722 24.1914 6.53193 23.4877 6.53193 23.4877C6.53193 23.4877 6.81106 24.2493 7.07109 24.9751L8.12794 28.0346L8.28062 28.4621H5.00273L5.13155 28.0346Z" fill="white"/>
<path d="M9.96693 35.505L8.31843 38.9674H8.85282L9.2393 38.1258H11.1955L11.5868 38.9674H12.1379L10.4942 35.505H9.96454H9.96693ZM9.44208 37.6982L10.215 36.0171L10.9999 37.6982H9.44208Z" fill="white"/>
<path d="M12.8327 35.9414H14.0256V38.9674H14.5337V35.9414H15.7313V35.505H12.8327V35.9414Z" fill="white"/>
<path d="M18.0741 35.505L16.4256 38.9674H16.96L17.3464 38.1258H19.3027L19.6939 38.9674H20.245L18.6013 35.505H18.0717H18.0741ZM17.5492 37.6982L18.3222 36.0171L19.1071 37.6982H17.5492Z" fill="white"/>
<path d="M23.831 38.4453C23.6425 38.5188 23.4516 38.5566 23.2584 38.5566C22.996 38.5566 22.7574 38.4965 22.5379 38.3785C22.3185 38.2605 22.1467 38.0979 22.0179 37.8931C21.8914 37.6882 21.827 37.4656 21.827 37.2251C21.827 36.9846 21.8914 36.7575 22.0179 36.5548C22.1443 36.3522 22.3185 36.1919 22.5379 36.0717C22.7574 35.9514 22.9984 35.8935 23.2584 35.8935C23.4564 35.8935 23.6497 35.9314 23.8357 36.0093C24.0242 36.0872 24.1864 36.1941 24.3296 36.3322L24.6325 35.9915C24.456 35.8267 24.2461 35.6998 24.0051 35.6085C23.7642 35.5172 23.5137 35.4727 23.256 35.4727C22.8982 35.4727 22.5713 35.5506 22.2755 35.7043C21.9797 35.8601 21.7435 36.0717 21.5741 36.3389C21.4024 36.6083 21.3165 36.9044 21.3165 37.2273C21.3165 37.5502 21.4 37.853 21.5717 38.1224C21.7411 38.3941 21.9725 38.6078 22.266 38.7637C22.5594 38.9196 22.8815 38.9997 23.2369 38.9997C23.4922 38.9997 23.7427 38.9507 23.9884 38.8528C24.2365 38.7548 24.4536 38.6212 24.6397 38.4497L24.332 38.138C24.1864 38.2672 24.0218 38.3674 23.8333 38.4431" fill="white"/>
<path d="M27.535 35.505L25.8865 38.9674H26.4209L26.8074 38.1258H28.7636L29.1549 38.9674H29.706L28.0623 35.505H27.5326H27.535ZM27.0102 37.6982L27.7831 36.0171L28.568 37.6982H27.0102Z" fill="white"/>
<path d="M33.7264 35.7299C33.4353 35.5807 33.1085 35.505 32.7483 35.505H31.2381V38.9674H32.7316C33.0966 38.9674 33.4234 38.8917 33.7168 38.7425C34.0103 38.5934 34.2417 38.3863 34.4087 38.1213C34.5757 37.8586 34.6616 37.5624 34.6616 37.2351C34.6616 36.9078 34.5781 36.6138 34.4135 36.3489C34.2465 36.0839 34.0174 35.879 33.7264 35.7276M33.9602 37.9053C33.8385 38.1035 33.6715 38.2594 33.4616 38.3707C33.2516 38.4843 33.0179 38.5399 32.7602 38.5399H31.7487V35.9369H32.7387C33.0011 35.9369 33.2373 35.9926 33.452 36.1084C33.6667 36.222 33.8337 36.3778 33.9578 36.576C34.0819 36.7742 34.1439 36.9968 34.1439 37.244C34.1439 37.4912 34.0819 37.7094 33.9602 37.9053Z" fill="white"/>
<path d="M36.9111 35.505H36.4029V38.9674H36.9111V35.505Z" fill="white"/>
<path d="M40.8623 37.2014C40.7072 37.1346 40.5044 37.0656 40.2539 36.9943C40.0511 36.9342 39.8961 36.883 39.7816 36.8384C39.6694 36.7939 39.574 36.7338 39.4953 36.6559C39.4166 36.5779 39.3784 36.4777 39.3784 36.3575C39.3784 36.2217 39.4428 36.117 39.5716 36.0391C39.7005 35.9611 39.8722 35.9233 40.0893 35.9233C40.2444 35.9233 40.4161 35.9478 40.5998 35.999C40.7859 36.0502 40.9649 36.1259 41.139 36.2283L41.3513 35.803C41.1843 35.7006 40.9959 35.6182 40.7812 35.5581C40.5664 35.498 40.3494 35.4668 40.1275 35.4668C39.8651 35.4668 39.636 35.5047 39.438 35.5804C39.24 35.6561 39.0873 35.7652 38.9776 35.9077C38.8679 36.0502 38.813 36.2128 38.813 36.3976C38.813 36.6091 38.8679 36.7783 38.9752 36.9075C39.0826 37.0366 39.2138 37.1324 39.3688 37.1992C39.5239 37.266 39.7267 37.3328 39.9724 37.4018C40.1728 37.4575 40.3327 37.5087 40.4519 37.5554C40.5688 37.6022 40.669 37.6645 40.7454 37.7425C40.8217 37.8204 40.8623 37.9228 40.8623 38.0453C40.8623 38.2012 40.7907 38.3236 40.6476 38.4127C40.5044 38.504 40.3088 38.5485 40.0607 38.5485C39.8531 38.5485 39.6384 38.504 39.4166 38.4172C39.1947 38.3303 38.9967 38.2056 38.8201 38.0431L38.5911 38.4528C38.7796 38.6176 39.0015 38.7489 39.2591 38.8491C39.5168 38.9493 39.7816 38.9983 40.0535 38.9983C40.3255 38.9983 40.5593 38.9582 40.7668 38.8781C40.9744 38.7979 41.1342 38.6821 41.2487 38.5352C41.3633 38.386 41.4205 38.2123 41.4205 38.0164C41.4205 37.8026 41.3656 37.6289 41.2559 37.4998C41.1462 37.3706 41.0126 37.2704 40.8575 37.2058" fill="white"/>
<path d="M42.811 35.9414H44.0038V38.9674H44.512V35.9414H45.7096V35.505H42.811V35.9414Z" fill="white"/>
<path d="M48.0523 35.505L46.4038 38.9674H46.9382L47.3247 38.1258H49.2809L49.6722 38.9674H50.2233L48.5796 35.505H48.0499H48.0523ZM47.5275 37.6982L48.3004 36.0171L49.0853 37.6982H47.5275Z" fill="white"/>
</g>
</svg>
