<svg width="283" height="31" viewBox="0 0 283 31" fill="none" xmlns="http://www.w3.org/2000/svg">
<g>
<path d="M27.8403 8.43993C27.8403 7.08814 29.2949 6.49437 31.2428 6.49437C32.8366 6.49437 34.8857 6.96181 36.3403 7.51768L37.3649 3.47496C37.2637 3.43706 36.3277 3.13386 36.2265 3.09596C34.5821 2.59062 32.2041 2.27478 30.623 2.27478C26.3857 2.27478 22.1609 4.15717 22.1609 9.23584C22.1609 17.2202 32.5077 14.4535 32.5077 17.8519C32.5077 19.2416 31.091 19.6332 29.472 19.6332C27.4861 19.6332 24.7413 18.9005 22.8566 17.8519L21.6803 22.122C21.6803 22.122 22.3633 22.4758 22.9198 22.7158C25.0828 23.6254 27.8023 23.9665 30.0665 23.9665C34.2659 23.9665 38.1618 22.021 38.1618 17.0686C38.1618 9.1095 27.8529 11.6488 27.8529 8.45256" fill="#FF4D00"/>
<path d="M45.4852 8.43993C45.4852 7.08814 46.9398 6.49437 48.8878 6.49437C50.4815 6.49437 52.5306 6.96181 53.9853 7.51768L55.0098 3.47496C54.9086 3.43706 53.9726 3.13386 53.8714 3.09596C52.227 2.59062 49.8491 2.27478 48.268 2.27478C44.0306 2.27478 39.8059 4.15717 39.8059 9.23584C39.8059 17.2202 50.1527 14.4535 50.1527 17.8519C50.1527 19.2416 48.736 19.6332 47.1169 19.6332C45.131 19.6332 42.3862 18.9005 40.5016 17.8519L39.3252 22.122C39.3252 22.122 40.0082 22.4758 40.5648 22.7158C42.7277 23.6254 45.4472 23.9665 47.7114 23.9665C51.9108 23.9665 55.8067 22.021 55.8067 17.0686C55.8067 9.1095 45.4978 11.6488 45.4978 8.45256" fill="#FF4D00"/>
<path d="M80.7756 1.31389V1.54129H88.7064V0L80.7756 1.31389Z" fill="#FF4D00"/>
<path d="M64.3078 15.8677L65.7624 10.8143C66.1292 9.56362 66.4581 8.40133 66.4581 8.40133C66.4581 8.40133 66.8882 9.65205 67.2803 10.8396L68.8993 15.8551L69.127 16.5626H64.0928L64.2952 15.8551L64.3078 15.8677ZM59.906 2.65309V6.72107H61.9172L56.4276 23.5615H62.0816L62.9417 20.6306H70.4804L71.4418 23.5615H77.4879L69.9492 2.66572H59.8933L59.906 2.65309Z" fill="#FF4D00"/>
<path d="M78.6885 2.65309V6.72107H80.7376V19.4935H78.6885V23.5615H88.7064V20.4916V19.4935H86.5308V6.72107H88.7064V6.25364V2.65309H78.6885Z" fill="#FF4D00"/>
<path d="M7.88026 15.8677L9.33487 10.8143C9.70169 9.56362 10.0306 8.40133 10.0306 8.40133C10.0306 8.40133 10.4606 9.65205 10.8528 10.8396L12.4718 15.8551L12.6995 16.5626H7.66521L7.8676 15.8551L7.88026 15.8677ZM14.0655 20.6306L15.0269 23.5615H21.073L13.5343 2.65309H3.47844V6.72107H5.48961L0 23.5615H5.65405L6.5142 20.6306H14.0529H14.0655Z" fill="#FF4D00"/>
</g>
<path d="M275.024 16.2595C274.126 15.7416 272.431 14.7056 272.431 12.8611C272.431 11.3072 273.493 9.86699 274.91 8.74261C276.377 7.6435 278.629 7.45399 279.805 7.45399C280.665 7.45399 281.272 7.51716 281.791 7.65613H281.766C282.714 7.85826 283.207 8.69207 282.917 9.34901C282.714 9.80382 282.132 10.0439 281.5 10.0439C281.12 10.0439 280.779 9.98069 280.526 9.84172H280.551C280.121 9.63958 279.628 9.50062 279.135 9.50062C277.288 9.50062 276.314 10.8777 276.314 11.9768C276.314 13.3286 277.237 13.8466 278.186 14.3898L279.628 15.2868C280.551 15.83 281.968 16.7017 281.968 18.3946C281.968 19.6327 281.335 21.2751 279.514 22.6016C277.819 23.8397 275.681 23.9281 274.353 23.9281C273.582 23.9281 272.772 23.8397 272.216 23.726C271.204 23.4733 270.521 22.7153 270.685 22.0836C271.065 21.1361 272.216 20.7823 273.101 21.2245H273.076C273.62 21.4898 274.29 21.6793 275.289 21.6793C277.187 21.6793 278.199 20.4665 278.199 19.3169C278.199 18.1672 277.503 17.7377 276.782 17.3081L274.998 16.2722L275.024 16.2595ZM270.002 8.94474C271.495 10.4481 271.558 12.1158 271.558 12.9117C271.558 17.3966 268.649 23.8776 262.046 23.8776C260.376 23.8776 258.732 23.4227 257.606 22.4121C256.91 21.7551 255.823 20.4791 255.823 17.9524C255.823 13.3159 258.909 7.45399 265.385 7.45399C267.434 7.45399 269.041 7.94669 269.989 8.94474M266.726 10.1576C266.384 9.84172 265.803 9.41219 264.968 9.41219C260.844 9.41219 259.845 16.0574 259.845 18.3062C259.845 21.0097 260.996 21.9573 262.324 21.9573C266.878 21.9573 267.51 14.1877 267.51 12.8106C267.51 12.0905 267.485 10.8524 266.739 10.1576M254.039 16.4617C253.521 19.3421 253.293 21.035 253.204 22.0204C253.141 22.8542 252.104 23.4354 251.016 23.4354H250.788C249.865 23.4606 249.144 22.6647 249.233 21.9446C249.233 21.9194 249.258 21.8562 249.258 21.8057C249.397 21.1992 249.599 20.3907 249.802 19.2158L250.295 16.3985C250.991 12.5958 251.244 10.7261 251.219 9.69012C251.193 8.99528 251.509 8.16147 252.597 8.11094C253.002 8.04777 253.293 7.99723 253.609 7.93407C254.583 7.73193 255.418 8.45204 255.367 9.19742C255.342 9.31112 255.317 9.51326 255.317 9.65223C255.203 10.1702 255.051 10.865 254.887 11.8126L254.052 16.4743L254.039 16.4617ZM256.341 3.82818C256.341 4.77569 255.481 6.24117 253.799 6.24117C252.825 6.24117 251.813 5.78637 251.813 4.71252C251.813 3.81554 252.623 2.35005 254.406 2.35005C255.418 2.35005 256.341 2.84276 256.341 3.81554M249.549 7.68139C250.447 7.88353 250.725 8.71734 250.498 9.29848C250.32 9.75329 249.802 9.93015 249.169 9.93015C248.79 9.93015 248.474 9.86699 248.246 9.75329H248.271C247.93 9.63958 247.55 9.55116 247.12 9.55116C243.604 9.55116 241.529 13.4044 241.529 17.3208C241.529 18.7357 241.757 20.4539 243.06 21.2624C243.806 21.7551 244.527 21.9194 245.223 21.9194C245.855 21.9194 246.399 21.8057 246.956 21.6035C247.791 21.3761 248.398 21.9446 248.195 22.5258C247.942 23.1827 247.07 23.6754 246.121 23.8144C245.691 23.8776 245.134 23.9028 244.628 23.9028C240.075 23.9028 237.305 21.4266 237.305 17.5103C237.305 13.0254 240.593 7.46662 247.563 7.46662C248.423 7.46662 249.056 7.55505 249.549 7.66875M235.192 8.94474C236.685 10.4481 236.748 12.1158 236.748 12.9117C236.748 17.3966 233.839 23.8776 227.236 23.8776C225.567 23.8776 223.922 23.4227 222.796 22.4121C222.101 21.7551 221.013 20.4791 221.013 17.9524C221.013 13.3159 224.099 7.45399 230.576 7.45399C232.625 7.45399 234.231 7.94669 235.192 8.94474ZM231.916 10.1576C231.575 9.84172 230.993 9.41219 230.158 9.41219C226.035 9.41219 225.023 16.0574 225.023 18.3062C225.023 21.0097 226.174 21.9573 227.502 21.9573C232.055 21.9573 232.688 14.1877 232.688 12.8106C232.688 12.0905 232.663 10.8524 231.916 10.1576ZM229.728 6.32961C230.538 6.32961 231.625 6.03904 232.587 5.4958C233.965 4.45985 234.206 4.23244 234.345 3.71447C234.547 2.94383 233.89 2.36268 232.928 2.36268C231.512 2.36268 231.119 2.9691 230.917 3.77764C230.778 4.38405 230.31 4.99045 229.589 5.50843C229.159 5.84953 229.096 6.34224 229.728 6.34224M218.281 21.0982C217.535 25.2167 216.991 28.3498 212.602 29.9669H212.627C211.185 30.5101 209.338 30.7375 207.668 30.7375C206.77 30.7375 206.024 30.6744 205.455 30.5607C204.671 30.3585 204.101 29.6132 204.418 28.9815C204.797 28.2361 205.796 27.9455 206.783 28.2614C207.276 28.4003 207.82 28.514 208.541 28.514C209.958 28.514 211.425 28.0592 212.513 26.8717C213.462 26.0126 214.006 23.966 214.587 21.035C213.55 22.4752 212.197 23.827 210.122 23.827C208.225 23.827 206.783 23.0564 206.087 21.8941H206.113C205.303 20.656 205.253 19.4432 205.253 18.8494C205.253 14.2129 208.655 7.47926 215.131 7.47926C216.75 7.47926 217.636 7.85826 218.382 8.1741H218.293L218.344 8.19937C218.546 8.11093 218.686 8.0604 218.686 8.0604C219.748 7.6814 220.76 8.4015 220.532 9.27322C220.267 10.1955 220.014 11.3198 219.609 13.7076L218.256 21.0982H218.281ZM214.739 9.43745C210.135 9.43745 209.262 15.6279 209.262 17.8387C209.262 18.5588 209.351 19.5948 209.718 20.1633C210.148 20.8834 210.666 21.2624 211.248 21.2624C212.222 21.2624 213.322 20.2896 214.107 19.279C214.967 17.864 215.523 15.3878 216.611 9.89226H216.7C216.206 9.69012 215.549 9.43745 214.739 9.43745ZM198.574 21.932C199.611 21.932 200.471 21.6414 201.167 21.3508C201.888 21.035 202.748 21.4646 202.584 22.0962C202.381 22.7279 201.774 23.3596 200.737 23.6501C200.016 23.7891 199.118 23.9407 197.916 23.9407C192.907 23.8018 191.668 21.1234 191.604 17.5229C191.604 14.4403 193.16 11.8505 194.147 10.6755C196.133 8.19937 198.953 7.39083 201.028 7.39083C204.114 7.39083 205.67 8.91948 205.67 10.9029C205.67 11.7115 205.265 12.8359 204.633 13.8086C203.937 14.8446 202.672 15.6784 201.66 16.1711C199.851 17.0934 197.916 17.2071 195.728 17.2955C195.703 17.4092 195.665 17.7882 195.665 18.3314C195.665 19.7085 196.069 21.9573 198.574 21.932ZM195.842 16.4869C197.423 16.2595 199.092 15.2236 200.534 13.8718C201.192 13.2149 201.711 12.2042 201.711 11.0293C201.711 9.79119 201.104 9.21004 200.383 9.21004C199.953 9.21004 198.966 9.41218 197.726 10.8524C196.828 11.9136 196.057 14.0992 195.829 16.4869M185.204 14.933C185.609 15.9058 185.988 16.7523 186.241 17.3839V17.3334C186.444 16.1837 186.621 15.0594 186.785 13.935L186.874 13.417L187.936 7.58032C188.164 6.34224 188.278 5.50843 188.341 4.92729C188.43 4.03031 189.353 3.32283 190.504 3.32283H190.643C191.617 3.32283 192.401 4.06821 192.136 4.81359C191.756 5.9127 191.276 7.89616 190.896 9.56378C190.833 9.85435 190.782 10.107 190.719 10.3976C190.517 11.4083 190.314 12.52 190.086 13.5939C189.859 14.693 189.656 15.7795 189.454 16.8154C189.429 17.0428 189.391 17.2702 189.34 17.5103C189.315 17.624 189.29 17.7629 189.252 17.8893C188.935 19.5822 188.758 20.6307 188.645 21.7172C188.645 21.7425 188.619 21.7804 188.619 21.8057C188.594 21.9446 188.594 22.0583 188.594 22.1468C188.505 22.9174 187.696 23.5617 186.608 23.5238C185.571 23.4985 184.597 23.0058 184.331 22.3363C184.066 21.5909 183.61 20.517 182.51 18.0156C182.054 16.9797 181.586 15.9437 181.131 14.8825C180.663 13.8213 180.182 12.7853 179.714 11.7494C179.626 11.5472 179.512 11.2567 179.423 11.0545C178.88 9.93015 178.791 9.95542 178.159 8.08566C177.868 9.84172 177.665 11.1051 177.235 13.8718C177.121 14.6425 176.97 15.5394 176.805 16.5754C176.35 19.3421 176.147 20.9466 176.084 21.932C176.034 22.7911 175.022 23.4859 173.833 23.4227H173.567C172.53 23.4227 171.758 22.7026 171.961 21.9825C172.454 20.5676 173.251 17.0555 174.49 10.385C174.958 7.88353 175.148 5.90007 175.148 4.93992C175.148 4.10611 175.894 3.29756 177.083 3.29756H178.323C179.613 3.27229 180.625 3.99241 180.891 4.93992H180.865C181.093 5.59686 181.384 6.24118 181.903 7.39083L185.191 14.933H185.204ZM157.832 16.2595C156.934 15.7416 155.239 14.7056 155.239 12.8611C155.239 11.3072 156.301 9.86699 157.718 8.74261C159.185 7.6435 161.437 7.45399 162.613 7.45399C163.473 7.45399 164.08 7.51716 164.599 7.65613H164.574C165.522 7.85826 166.016 8.69207 165.725 9.34901C165.522 9.80382 164.953 10.0439 164.308 10.0439C163.929 10.0439 163.587 9.98069 163.334 9.84172H163.359C162.929 9.63958 162.436 9.50062 161.943 9.50062C160.096 9.50062 159.122 10.8777 159.122 11.9768C159.122 13.3286 160.045 13.8466 160.994 14.3898L162.436 15.2868C163.359 15.83 164.776 16.7017 164.776 18.3946C164.776 19.6327 164.144 21.2751 162.322 22.6016C160.627 23.8397 158.49 23.9281 157.161 23.9281C156.377 23.9281 155.58 23.8397 155.024 23.726C154.012 23.4733 153.329 22.7153 153.493 22.0836C153.873 21.1361 155.024 20.7823 155.909 21.2245H155.884C156.428 21.4898 157.098 21.6793 158.098 21.6793C159.995 21.6793 161.007 20.4665 161.007 19.3169C161.007 18.1672 160.311 17.7377 159.59 17.3081L157.807 16.2722L157.832 16.2595ZM140.25 13.2907C140.452 12.1158 140.68 10.6755 140.68 9.57642V9.39955C140.655 8.74261 141.059 7.9846 142.059 7.8709C142.35 7.84563 142.577 7.80773 142.868 7.7572C142.894 7.7572 142.982 7.73193 143.007 7.73193C143.931 7.61822 144.905 8.22463 144.816 8.90684C144.753 9.24795 144.905 8.64154 144.753 9.36165C144.892 9.18478 145.094 8.98264 145.297 8.81841C146.448 7.92143 147.978 7.37819 149.648 7.37819C151.457 7.37819 153.911 8.00986 153.911 10.4355C153.911 10.9535 153.822 11.5851 153.595 12.9117C153.481 13.5181 153.367 14.2635 153.253 14.9204C153.139 15.6152 153 16.2469 152.874 16.9039C152.646 18.1419 152.241 20.4665 152.153 21.9067C152.089 22.7658 151.09 23.3975 149.964 23.3975H149.699C148.75 23.4227 147.89 22.7658 148.092 22.0457C148.383 21.1234 148.699 19.7464 149.129 16.9797L149.471 15.0846C149.737 13.6697 149.901 12.5579 149.901 11.7115C149.901 10.3344 149.471 9.75329 148.206 9.75329C147.106 9.75329 145.79 10.6503 144.943 11.6862C144.045 12.8359 143.703 14.9709 143.45 16.5248L142.931 19.898C142.792 20.795 142.729 21.4267 142.704 21.9699C142.641 22.8037 141.603 23.3848 140.516 23.3848H140.288C139.314 23.4101 138.479 22.7279 138.618 22.0583C138.909 21.0224 139.112 19.9612 139.314 18.6599L140.237 13.278L140.25 13.2907ZM136.62 8.94474C138.112 10.4481 138.176 12.1158 138.176 12.9117C138.176 17.3966 135.266 23.8776 128.664 23.8776C126.994 23.8776 125.35 23.4227 124.224 22.4121C123.528 21.7551 122.44 20.4791 122.44 17.9524C122.44 13.3159 125.527 7.45399 132.003 7.45399C134.052 7.45399 135.658 7.94669 136.607 8.94474M133.331 10.1576C132.989 9.84172 132.408 9.41219 131.573 9.41219C127.449 9.41219 126.45 16.0574 126.45 18.3062C126.45 21.0097 127.601 21.9573 128.929 21.9573C133.483 21.9573 134.115 14.1877 134.115 12.8106C134.115 12.0905 134.09 10.8524 133.331 10.1576ZM109.134 8.0225C109.425 6.58228 109.513 5.5716 109.513 4.86412C109.488 4.05558 110.171 3.24703 111.297 3.28494H111.701C112.245 3.28494 113.004 3.25966 113.776 3.22176C114.067 3.22176 114.383 3.1965 114.674 3.1965C115.256 3.17123 115.964 3.14597 116.521 3.14597C118.456 3.14597 120.606 3.2344 121.732 4.58619C122.314 5.35683 122.681 6.34224 122.681 7.23922C122.681 8.81841 121.757 10.7766 119.822 12.04C118.81 12.6716 117.659 12.9622 116.799 13.0759C118.608 13.3917 121.378 14.2003 121.378 17.3081C121.378 18.6346 120.834 19.8348 119.911 20.9971C119.215 21.8057 117.608 23.7639 112.448 23.7639C111.499 23.7639 110.803 23.7386 110.171 23.7007H109.994C109.475 23.6754 108.982 23.6501 108.375 23.6501H107.995C106.933 23.6501 106.123 22.8163 106.262 22.0078C106.402 21.4014 106.604 20.5676 106.87 19.3548C106.87 19.2411 106.895 19.0642 106.933 18.9505L109.121 8.04776L109.134 8.0225ZM114.054 14.3013C113.649 14.3013 113.194 14.3014 111.841 14.3266L110.867 19.1905C110.727 19.9106 110.664 20.3149 110.664 20.6055C110.664 21.6162 111.322 21.692 112.334 21.692C116.306 21.692 117.065 18.6473 117.065 17.1186C117.065 14.3014 114.813 14.3013 114.067 14.3013M113.776 5.20522C113.776 5.20522 113.662 5.20523 113.599 5.2305L112.309 11.9642H112.397C112.536 11.9642 112.739 11.9894 112.916 11.9894C113.257 11.9894 113.953 11.9642 114.56 11.901C115.053 11.8378 115.686 11.6989 116.293 11.4462C117.786 10.7513 118.481 9.03318 118.481 7.68139C118.481 5.29366 116.812 5.06626 115.623 5.06626C114.99 5.06626 114.408 5.12942 113.776 5.20522Z" fill="#FF7100"/>
</svg>
