<svg width="358" height="6" viewBox="0 0 358 6" fill="none" xmlns="http://www.w3.org/2000/svg">
<path d="M0.000326048 2.67098C0.000326048 4.14649 1.19646 5.34262 2.67196 5.34262C4.14747 5.34262 5.3436 4.14649 5.3436 2.67098C5.3436 1.19548 4.14747 -0.000652335 2.67196 -0.000652335C1.19646 -0.000652335 0.000326048 1.19548 0.000326048 2.67098ZM352.656 2.67098C352.656 4.14649 353.853 5.34262 355.328 5.34262C356.804 5.34262 358 4.14649 358 2.67098C358 1.19548 356.804 -0.000652335 355.328 -0.000652335C353.853 -0.000652335 352.656 1.19548 352.656 2.67098ZM2.67196 2.67098V3.17192H355.328V2.67098V2.17005H2.67196V2.67098Z" fill="#B40082"/>
</svg>
