<svg xmlns="http://www.w3.org/2000/svg" width="307" height="6" viewBox="0 0 307 6" fill="none">
  <path d="M0.000325441 2.66602C0.000325441 4.13877 1.19423 5.33268 2.66699 5.33268C4.13975 5.33268 5.33366 4.13877 5.33366 2.66602C5.33366 1.19326 4.13975 -0.000651121 2.66699 -0.000651121C1.19423 -0.000651121 0.000325441 1.19326 0.000325441 2.66602ZM301 2.66602C301 4.13877 302.194 5.33268 303.667 5.33268C305.14 5.33268 306.334 4.13877 306.334 2.66602C306.334 1.19326 305.14 -0.000651121 303.667 -0.000651121C302.194 -0.000651121 301 1.19326 301 2.66602ZM2.66699 2.66602V3.16602H303.667V2.66602V2.16602H2.66699V2.66602Z" fill="#FFDC00"/>
</svg>
