<svg width="283" height="31" viewBox="0 0 283 31" fill="none" xmlns="http://www.w3.org/2000/svg">
<path d="M27.8402 8.43991C27.8402 7.08813 29.2948 6.49436 31.2428 6.49436C32.8365 6.49436 34.8856 6.9618 36.3403 7.51767L37.3648 3.47495C37.2636 3.43705 36.3276 3.13385 36.2264 3.09595C34.5821 2.59061 32.2041 2.27477 30.623 2.27477C26.3856 2.27477 22.1609 4.15717 22.1609 9.23583C22.1609 17.2202 32.5076 14.4535 32.5076 17.8519C32.5076 19.2415 31.091 19.6332 29.4719 19.6332C27.4861 19.6332 24.7412 18.9004 22.8566 17.8519L21.6802 22.122C21.6802 22.122 22.3632 22.4757 22.9198 22.7158C25.0828 23.6254 27.8023 23.9665 30.0664 23.9665C34.2658 23.9665 38.1617 22.0209 38.1617 17.0686C38.1617 9.10949 27.8529 11.6488 27.8529 8.45255" fill="white"/>
<path d="M45.4851 8.43991C45.4851 7.08813 46.9398 6.49436 48.8877 6.49436C50.4814 6.49436 52.5306 6.9618 53.9852 7.51767L55.0097 3.47495C54.9085 3.43705 53.9725 3.13385 53.8713 3.09595C52.2269 2.59061 49.849 2.27477 48.2679 2.27477C44.0305 2.27477 39.8058 4.15717 39.8058 9.23583C39.8058 17.2202 50.1526 14.4535 50.1526 17.8519C50.1526 19.2415 48.7359 19.6332 47.1168 19.6332C45.1309 19.6332 42.3862 18.9004 40.5015 17.8519L39.3251 22.122C39.3251 22.122 40.0082 22.4757 40.5647 22.7158C42.7277 23.6254 45.4472 23.9665 47.7113 23.9665C51.9107 23.9665 55.8066 22.0209 55.8066 17.0686C55.8066 9.10949 45.4978 11.6488 45.4978 8.45255" fill="white"/>
<path d="M80.7759 1.31388V1.54129H88.7068V0L80.7759 1.31388Z" fill="white"/>
<path d="M64.3077 15.8677L65.7623 10.8143C66.1291 9.5636 66.458 8.40132 66.458 8.40132C66.458 8.40132 66.888 9.65203 67.2802 10.8396L68.8992 15.8551L69.1269 16.5625H64.0927L64.295 15.8551L64.3077 15.8677ZM59.9059 2.65309V6.72106H61.9171L56.4275 23.5615H62.0815L62.9416 20.6305H70.4803L71.4416 23.5615H77.4878L69.9491 2.66571H59.8932L59.9059 2.65309Z" fill="white"/>
<path d="M78.6893 2.65309V6.72106H80.7385V19.4935H78.6893V23.5615H88.7072V20.4916V19.4935H86.5316V6.72106H88.7072V6.25363V2.65309H78.6893Z" fill="white"/>
<path d="M7.88025 15.8677L9.33486 10.8143C9.70167 9.5636 10.0306 8.40132 10.0306 8.40132C10.0306 8.40132 10.4606 9.65203 10.8527 10.8396L12.4718 15.8551L12.6995 16.5625H7.6652L7.86758 15.8551L7.88025 15.8677ZM14.0655 20.6305L15.0268 23.5615H21.073L13.5343 2.65309H3.47843V6.72106H5.4896L0 23.5615H5.65404L6.51419 20.6305H14.0529H14.0655Z" fill="white"/>
<path d="M275.024 16.2595C274.126 15.7415 272.431 14.7056 272.431 12.8611C272.431 11.3072 273.494 9.86698 274.91 8.7426C276.378 7.64348 278.629 7.45397 279.805 7.45397C280.666 7.45397 281.273 7.51715 281.791 7.65612H281.766C282.715 7.85825 283.208 8.69206 282.917 9.349C282.715 9.8038 282.133 10.0438 281.5 10.0438C281.121 10.0438 280.779 9.98067 280.526 9.8417H280.552C280.122 9.63957 279.628 9.5006 279.135 9.5006C277.288 9.5006 276.314 10.8777 276.314 11.9768C276.314 13.3285 277.238 13.8465 278.186 14.3898L279.628 15.2867C280.552 15.83 281.968 16.7017 281.968 18.3946C281.968 19.6327 281.336 21.275 279.514 22.6015C277.82 23.8396 275.682 23.928 274.354 23.928C273.582 23.928 272.773 23.8396 272.216 23.7259C271.204 23.4732 270.521 22.7152 270.686 22.0836C271.065 21.136 272.216 20.7823 273.102 21.2245H273.076C273.62 21.4898 274.291 21.6793 275.29 21.6793C277.187 21.6793 278.199 20.4665 278.199 19.3168C278.199 18.1672 277.503 17.7376 276.782 17.3081L274.999 16.2722L275.024 16.2595ZM270.003 8.94473C271.495 10.4481 271.558 12.1157 271.558 12.9116C271.558 17.3965 268.649 23.8775 262.046 23.8775C260.377 23.8775 258.732 23.4227 257.607 22.412C256.911 21.7551 255.823 20.4791 255.823 17.9524C255.823 13.3159 258.91 7.45397 265.386 7.45397C267.435 7.45397 269.041 7.94668 269.99 8.94473M266.727 10.1575C266.385 9.8417 265.803 9.41217 264.968 9.41217C260.845 9.41217 259.846 16.0574 259.846 18.3061C259.846 21.0097 260.997 21.9572 262.325 21.9572C266.878 21.9572 267.511 14.1876 267.511 12.8106C267.511 12.0905 267.485 10.8524 266.739 10.1575M254.04 16.4617C253.521 19.3421 253.293 21.035 253.205 22.0204C253.142 22.8542 252.104 23.4353 251.017 23.4353H250.789C249.866 23.4606 249.145 22.6647 249.233 21.9446C249.233 21.9193 249.258 21.8562 249.258 21.8056C249.398 21.1992 249.6 20.3907 249.802 19.2158L250.296 16.3985C250.991 12.5958 251.244 10.7261 251.219 9.69011C251.194 8.99527 251.51 8.16146 252.598 8.11092C253.003 8.04775 253.293 7.99722 253.61 7.93405C254.584 7.73192 255.418 8.45203 255.368 9.1974C255.343 9.3111 255.317 9.51324 255.317 9.65221C255.203 10.1702 255.052 10.865 254.887 11.8125L254.052 16.4743L254.04 16.4617ZM256.342 3.82817C256.342 4.77568 255.482 6.24116 253.799 6.24116C252.825 6.24116 251.814 5.78636 251.814 4.71251C251.814 3.81553 252.623 2.35004 254.407 2.35004C255.418 2.35004 256.342 2.84276 256.342 3.81553M249.549 7.68138C250.447 7.88351 250.726 8.71732 250.498 9.29846C250.321 9.75327 249.802 9.93014 249.17 9.93014C248.79 9.93014 248.474 9.86697 248.247 9.75327H248.272C247.93 9.63957 247.551 9.55114 247.121 9.55114C243.604 9.55114 241.53 13.4044 241.53 17.3207C241.53 18.7357 241.758 20.4538 243.061 21.2624C243.807 21.7551 244.528 21.9193 245.223 21.9193C245.856 21.9193 246.4 21.8056 246.956 21.6035C247.791 21.3761 248.398 21.9446 248.196 22.5257C247.943 23.1827 247.07 23.6754 246.122 23.8143C245.692 23.8775 245.135 23.9028 244.629 23.9028C240.075 23.9028 237.305 21.4266 237.305 17.5102C237.305 13.0253 240.594 7.46661 247.564 7.46661C248.424 7.46661 249.056 7.55504 249.549 7.66874M235.193 8.94473C236.686 10.4481 236.749 12.1157 236.749 12.9116C236.749 17.3965 233.84 23.8775 227.237 23.8775C225.567 23.8775 223.923 23.4227 222.797 22.412C222.101 21.7551 221.014 20.4791 221.014 17.9524C221.014 13.3159 224.1 7.45397 230.576 7.45397C232.625 7.45397 234.232 7.94668 235.193 8.94473ZM231.917 10.1575C231.575 9.8417 230.994 9.41217 230.159 9.41217C226.035 9.41217 225.023 16.0574 225.023 18.3061C225.023 21.0097 226.174 21.9572 227.502 21.9572C232.056 21.9572 232.688 14.1876 232.688 12.8106C232.688 12.0905 232.663 10.8524 231.917 10.1575ZM229.729 6.3296C230.538 6.3296 231.626 6.03903 232.587 5.49579C233.966 4.45984 234.206 4.23244 234.345 3.71446C234.548 2.94382 233.89 2.36268 232.929 2.36268C231.512 2.36268 231.12 2.96909 230.918 3.77763C230.778 4.38404 230.31 4.99044 229.59 5.50842C229.159 5.84952 229.096 6.34223 229.729 6.34223M218.281 21.0981C217.535 25.2167 216.991 28.3498 212.602 29.9668H212.627C211.185 30.5101 209.339 30.7375 207.669 30.7375C206.771 30.7375 206.025 30.6743 205.456 30.5606C204.671 30.3585 204.102 29.6131 204.418 28.9814C204.798 28.2361 205.797 27.9455 206.784 28.2613C207.277 28.4003 207.821 28.514 208.542 28.514C209.958 28.514 211.426 28.0592 212.514 26.8716C213.462 26.0126 214.006 23.9659 214.588 21.035C213.551 22.4752 212.197 23.827 210.123 23.827C208.226 23.827 206.784 23.0563 206.088 21.8941H206.113C205.304 20.656 205.253 19.4432 205.253 18.8494C205.253 14.2129 208.656 7.47925 215.132 7.47925C216.751 7.47925 217.636 7.85825 218.383 8.17408H218.294L218.345 8.19936C218.547 8.11092 218.686 8.06039 218.686 8.06039C219.749 7.68138 220.761 8.40149 220.533 9.2732C220.267 10.1954 220.014 11.3198 219.61 13.7076L218.256 21.0981H218.281ZM214.74 9.43743C210.136 9.43743 209.263 15.6278 209.263 17.8387C209.263 18.5588 209.351 19.5948 209.718 20.1633C210.148 20.8834 210.667 21.2624 211.249 21.2624C212.223 21.2624 213.323 20.2896 214.107 19.2789C214.967 17.864 215.524 15.3878 216.612 9.89224H216.7C216.207 9.6901 215.549 9.43743 214.74 9.43743ZM198.575 21.932C199.612 21.932 200.472 21.6414 201.168 21.3508C201.889 21.035 202.749 21.4645 202.584 22.0962C202.382 22.7279 201.775 23.3595 200.737 23.6501C200.016 23.7891 199.118 23.9407 197.917 23.9407C192.908 23.8017 191.668 21.1234 191.605 17.5229C191.605 14.4403 193.161 11.8504 194.147 10.6755C196.133 8.19935 198.954 7.39081 201.028 7.39081C204.115 7.39081 205.671 8.91946 205.671 10.9029C205.671 11.7115 205.266 12.8358 204.633 13.8086C203.938 14.8446 202.673 15.6784 201.661 16.1711C199.852 17.0933 197.917 17.207 195.729 17.2955C195.703 17.4092 195.665 17.7882 195.665 18.3314C195.665 19.7085 196.07 21.9572 198.575 21.932ZM195.842 16.4869C197.423 16.2595 199.093 15.2236 200.535 13.8718C201.193 13.2148 201.711 12.2042 201.711 11.0293C201.711 9.79117 201.104 9.21003 200.383 9.21003C199.953 9.21003 198.967 9.41217 197.727 10.8524C196.829 11.9136 196.057 14.0992 195.83 16.4869M185.205 14.933C185.609 15.9058 185.989 16.7522 186.242 17.3839V17.3334C186.444 16.1837 186.621 15.0593 186.786 13.935L186.874 13.417L187.937 7.58031C188.165 6.34223 188.278 5.50842 188.342 4.92728C188.43 4.0303 189.354 3.32283 190.505 3.32283H190.644C191.618 3.32283 192.402 4.0682 192.136 4.81358C191.757 5.91269 191.276 7.89614 190.897 9.56376C190.833 9.85434 190.783 10.107 190.72 10.3976C190.517 11.4083 190.315 12.52 190.087 13.5939C189.859 14.693 189.657 15.7794 189.455 16.8154C189.429 17.0428 189.391 17.2702 189.341 17.5102C189.316 17.6239 189.29 17.7629 189.252 17.8892C188.936 19.5821 188.759 20.6307 188.645 21.7172C188.645 21.7425 188.62 21.7804 188.62 21.8056C188.595 21.9446 188.595 22.0583 188.595 22.1467C188.506 22.9174 187.696 23.5617 186.609 23.5238C185.571 23.4985 184.598 23.0058 184.332 22.3362C184.066 21.5908 183.611 20.517 182.51 18.0156C182.055 16.9796 181.587 15.9437 181.132 14.8825C180.664 13.8213 180.183 12.7853 179.715 11.7494C179.627 11.5472 179.513 11.2567 179.424 11.0545C178.88 9.93014 178.792 9.95541 178.159 8.08565C177.868 9.8417 177.666 11.1051 177.236 13.8718C177.122 14.6424 176.97 15.5394 176.806 16.5754C176.35 19.3421 176.148 20.9465 176.085 21.932C176.034 22.791 175.022 23.4859 173.833 23.4227H173.568C172.531 23.4227 171.759 22.7026 171.961 21.9825C172.455 20.5675 173.252 17.0554 174.491 10.3849C174.959 7.88351 175.149 5.90006 175.149 4.93991C175.149 4.1061 175.895 3.29756 177.084 3.29756H178.324C179.614 3.27229 180.626 3.9924 180.891 4.93991H180.866C181.094 5.59685 181.385 6.24117 181.903 7.39081L185.192 14.933H185.205ZM157.833 16.2595C156.934 15.7415 155.24 14.7056 155.24 12.8611C155.24 11.3072 156.302 9.86698 157.719 8.7426C159.186 7.64348 161.437 7.45397 162.614 7.45397C163.474 7.45397 164.081 7.51715 164.6 7.65612H164.574C165.523 7.85825 166.016 8.69206 165.725 9.349C165.523 9.8038 164.954 10.0438 164.309 10.0438C163.929 10.0438 163.588 9.98067 163.335 9.8417H163.36C162.93 9.63957 162.437 9.5006 161.943 9.5006C160.097 9.5006 159.123 10.8777 159.123 11.9768C159.123 13.3285 160.046 13.8465 160.995 14.3898L162.437 15.2867C163.36 15.83 164.777 16.7017 164.777 18.3946C164.777 19.6327 164.144 21.275 162.323 22.6015C160.628 23.8396 158.49 23.928 157.162 23.928C156.378 23.928 155.581 23.8396 155.025 23.7259C154.013 23.4732 153.33 22.7152 153.494 22.0836C153.873 21.136 155.025 20.7823 155.91 21.2245H155.885C156.429 21.4898 157.099 21.6793 158.098 21.6793C159.996 21.6793 161.007 20.4665 161.007 19.3168C161.007 18.1672 160.312 17.7376 159.591 17.3081L157.807 16.2722L157.833 16.2595ZM140.251 13.2907C140.453 12.1157 140.681 10.6755 140.681 9.5764V9.39953C140.655 8.74259 141.06 7.98458 142.059 7.87088C142.35 7.84562 142.578 7.80772 142.869 7.75719C142.894 7.75719 142.983 7.73191 143.008 7.73191C143.931 7.61821 144.905 8.22462 144.817 8.90683C144.754 9.24793 144.905 8.64153 144.754 9.36163C144.893 9.18477 145.095 8.98263 145.298 8.81839C146.449 7.92142 147.979 7.37818 149.649 7.37818C151.458 7.37818 153.911 8.00985 153.911 10.4355C153.911 10.9535 153.823 11.5851 153.595 12.9116C153.481 13.518 153.368 14.2634 153.254 14.9204C153.14 15.6152 153.001 16.2469 152.874 16.9038C152.647 18.1419 152.242 20.4665 152.153 21.9067C152.09 22.7658 151.091 23.3974 149.965 23.3974H149.699C148.751 23.4227 147.891 22.7658 148.093 22.0457C148.384 21.1234 148.7 19.7464 149.13 16.9796L149.472 15.0846C149.737 13.6697 149.902 12.5579 149.902 11.7115C149.902 10.3344 149.472 9.75327 148.207 9.75327C147.106 9.75327 145.791 10.6502 144.943 11.6862C144.045 12.8358 143.704 14.9709 143.451 16.5248L142.932 19.898C142.793 20.7949 142.73 21.4266 142.705 21.9699C142.641 22.8037 141.604 23.3848 140.516 23.3848H140.289C139.315 23.4101 138.48 22.7279 138.619 22.0583C138.91 21.0223 139.112 19.9611 139.315 18.6599L140.238 13.278L140.251 13.2907ZM136.62 8.94473C138.113 10.4481 138.176 12.1157 138.176 12.9116C138.176 17.3965 135.267 23.8775 128.664 23.8775C126.995 23.8775 125.35 23.4227 124.225 22.412C123.529 21.7551 122.441 20.4791 122.441 17.9524C122.441 13.3159 125.527 7.45397 132.004 7.45397C134.053 7.45397 135.659 7.94668 136.608 8.94473M133.332 10.1575C132.99 9.8417 132.408 9.41217 131.574 9.41217C127.45 9.41217 126.451 16.0574 126.451 18.3061C126.451 21.0097 127.602 21.9572 128.93 21.9572C133.484 21.9572 134.116 14.1876 134.116 12.8106C134.116 12.0905 134.091 10.8524 133.332 10.1575ZM109.134 8.02249C109.425 6.58227 109.514 5.57159 109.514 4.86412C109.489 4.05557 110.172 3.24703 111.297 3.28493H111.702C112.246 3.28493 113.005 3.25966 113.777 3.22176C114.068 3.22176 114.384 3.1965 114.675 3.1965C115.257 3.17123 115.965 3.14596 116.521 3.14596C118.457 3.14596 120.607 3.23439 121.733 4.58618C122.315 5.35682 122.681 6.34223 122.681 7.23921C122.681 8.81839 121.758 10.7766 119.823 12.0399C118.811 12.6716 117.66 12.9622 116.8 13.0759C118.608 13.3917 121.379 14.2003 121.379 17.3081C121.379 18.6346 120.835 19.8348 119.911 20.9971C119.216 21.8056 117.609 23.7638 112.449 23.7638C111.5 23.7638 110.804 23.7385 110.172 23.7006H109.995C109.476 23.6754 108.983 23.6501 108.376 23.6501H107.996C106.934 23.6501 106.124 22.8163 106.263 22.0078C106.402 21.4014 106.605 20.5675 106.87 19.3547C106.87 19.241 106.896 19.0641 106.934 18.9504L109.122 8.04775L109.134 8.02249ZM114.055 14.3013C113.65 14.3013 113.195 14.3013 111.841 14.3266L110.867 19.1905C110.728 19.9106 110.665 20.3149 110.665 20.6054C110.665 21.6161 111.323 21.6919 112.335 21.6919C116.306 21.6919 117.065 18.6472 117.065 17.1186C117.065 14.3013 114.814 14.3013 114.068 14.3013M113.777 5.20522C113.777 5.20522 113.663 5.20522 113.6 5.23049L112.309 11.9641H112.398C112.537 11.9641 112.739 11.9894 112.917 11.9894C113.258 11.9894 113.954 11.9641 114.561 11.901C115.054 11.8378 115.687 11.6988 116.294 11.4462C117.786 10.7513 118.482 9.03316 118.482 7.68138C118.482 5.29365 116.812 5.06625 115.623 5.06625C114.991 5.06625 114.409 5.12941 113.777 5.20522Z" fill="#D8D8D8"/>
</svg>
