<svg width="50" height="37" viewBox="0 0 50 37" fill="none" xmlns="http://www.w3.org/2000/svg">
<g clip-path="url(#clip0_1481_99)">
<mask id="mask0_1481_99" style="mask-type:luminance" maskUnits="userSpaceOnUse" x="0" y="0" width="50" height="37">
<path d="M50 0H0V36.3636H50V0Z" fill="white"/>
</mask>
<g mask="url(#mask0_1481_99)">
<path d="M9.53125 8.36222C8.6198 9.68258 7.86507 11.1213 7.29799 12.6492C6.79071 14.0132 6.4319 15.4498 6.24219 16.9362H44.3603C44.1706 15.4498 43.8118 14.0132 43.3066 12.6492C42.7395 11.1213 41.9889 9.68258 41.0795 8.36222C39.9598 6.7367 38.6008 5.28971 37.0563 4.07524C33.8085 1.5238 29.7358 0 25.3147 0C20.8935 0 16.8146 1.5238 13.5627 4.07524C12.014 5.28971 10.653 6.7367 9.53125 8.36222Z" fill="#E30D2A"/>
<path d="M16.0455 12.6484H7.29799C6.79071 14.0124 6.4319 15.449 6.24219 16.9354H14.8144C15.0082 15.4262 15.431 13.9833 16.0455 12.6484Z" fill="#F39200"/>
<path d="M19.0303 8.36133H9.53014C8.61869 9.68168 7.86396 11.1204 7.29688 12.6483H16.0443C16.7826 11.0456 17.7992 9.59449 19.0303 8.36133Z" fill="#EA5B0C"/>
<path d="M43.3066 12.6492C42.7395 11.1213 41.9889 9.68258 41.0795 8.36222C39.9598 6.7367 38.6008 5.28971 37.0563 4.07524C33.8085 1.5238 29.7358 0 25.3146 0C20.8935 0 16.8146 1.5238 13.5627 4.07524C12.014 5.28971 10.653 6.7367 9.53125 8.36222H19.0314C21.6709 5.71737 25.3002 4.07524 29.2986 4.07524C33.2971 4.07524 36.9202 5.71737 39.5535 8.36222C40.7825 9.59538 41.795 11.0444 42.5312 12.6492C43.1437 13.9841 43.5664 15.4269 43.7602 16.9362H44.3603C44.1706 15.4498 43.8118 14.0132 43.3066 12.6492Z" fill="#E40428"/>
<path d="M39.5531 8.36133H19.0289C17.7978 9.59449 16.7812 11.0456 16.043 12.6483H42.5308C41.7946 11.0456 40.78 9.59449 39.5531 8.36133Z" fill="#F39200"/>
<path d="M14.8145 16.9354H43.7624C43.5685 15.4262 43.1479 13.9833 42.5333 12.6484H16.0455C15.431 13.9833 15.0083 15.4262 14.8145 16.9354Z" fill="#FFDE00"/>
<path d="M29.2975 4.07422C25.2991 4.07422 21.6698 5.71635 19.0303 8.36121H39.5545C36.9191 5.71635 33.298 4.07422 29.2996 4.07422" fill="#EA5B0C"/>
<path d="M15.6824 21.9167C15.6824 21.1486 16.501 20.8102 17.6022 20.8102C18.4971 20.8102 19.6519 21.0738 20.4726 21.3915L21.048 19.0912C20.9902 19.0705 20.4664 18.894 20.4046 18.8753C19.4746 18.5888 18.1383 18.4082 17.2475 18.4082C14.8616 18.4082 12.4758 19.4774 12.4758 22.3672C12.4758 26.9074 18.3095 25.3317 18.3095 27.2645C18.3095 28.0534 17.5073 28.2776 16.5938 28.2776C15.4761 28.2776 13.9296 27.8645 12.8655 27.2645L12.2036 29.6914C12.1747 29.681 12.5912 29.8948 12.9006 30.0277C14.1151 30.5446 15.6514 30.7356 16.9279 30.7356C19.2952 30.7356 21.4934 29.6291 21.4934 26.814C21.4934 22.2924 15.6782 23.7374 15.6782 21.9167" fill="white"/>
<path d="M25.6325 21.9167C25.6325 21.1486 26.4533 20.8102 27.5524 20.8102C28.4473 20.8102 29.6021 21.0738 30.4228 21.3915L30.9982 19.0912C30.9404 19.0705 30.4166 18.894 30.3548 18.8753C29.4248 18.5888 28.0885 18.4082 27.1977 18.4082C24.8118 18.4082 22.426 19.4774 22.426 22.3672C22.426 26.9074 28.2597 25.3317 28.2597 27.2645C28.2597 28.0534 27.4575 28.2776 26.544 28.2776C25.4263 28.2776 23.8798 27.8645 22.8157 27.2645L22.1538 29.6914C22.1249 29.681 22.5414 29.8948 22.8508 30.0277C24.0653 30.5446 25.6016 30.7356 26.8781 30.7356C29.2454 30.7356 31.4436 29.6291 31.4436 26.814C31.4436 22.2924 25.6284 23.7374 25.6284 21.9167" fill="white"/>
<path d="M45.5234 17.8705V18.0013H49.9982V17.1211L45.5234 17.8705Z" fill="white"/>
<path d="M33.7616 18.6309V20.9394H34.8979L31.8047 30.5078H34.9906L35.4752 28.8428H39.7232L40.2655 30.5078H43.6763L39.4283 18.6309H33.7637H33.7616ZM36.2403 26.1357L37.0589 23.2645C37.2652 22.5525 37.4507 21.8964 37.4507 21.8964C37.4507 21.8964 37.692 22.6064 37.9168 23.2832L38.8303 26.1357L38.9623 26.5343H36.1289L36.2403 26.1357Z" fill="white"/>
<path d="M44.3525 18.6309V20.9394H45.5094V28.1993H44.3525V30.5078H49.9986V28.7681V28.1993H48.7696V20.9394H49.9986V20.6778V18.6309H44.3525Z" fill="white"/>
<path d="M7.91851 28.8428L8.46084 30.5078H11.8716L7.62362 18.6309H1.95694V20.9394H3.09317L0 30.5078H3.18596L3.67056 28.8428H7.91851ZM4.4356 26.1357L5.25426 23.2645C5.46047 22.5525 5.64606 21.8964 5.64606 21.8964C5.64606 21.8964 5.88733 22.6064 6.1121 23.2832L7.02561 26.1357L7.15759 26.5343H4.32425L4.4356 26.1357Z" fill="white"/>
<path d="M8.61535 33.1016L7.19043 36.3298H7.65234L7.9864 35.545H9.67734L10.0155 36.3298H10.4919L9.07108 33.1016H8.61329H8.61535ZM8.16168 35.1464L8.82981 33.579L9.50824 35.1464H8.16168Z" fill="white"/>
<path d="M11.0918 33.5085H12.1229V36.3298H12.5621V33.5085H13.5973V33.1016H11.0918V33.5085Z" fill="white"/>
<path d="M15.6222 33.1016L14.1973 36.3298H14.6592L14.9932 35.545H16.6842L17.0224 36.3298H17.4987L16.0779 33.1016H15.6201H15.6222ZM15.1685 35.1464L15.8366 33.579L16.5151 35.1464H15.1685Z" fill="white"/>
<path d="M20.5983 35.8438C20.4354 35.9123 20.2704 35.9476 20.1034 35.9476C19.8765 35.9476 19.6703 35.8915 19.4806 35.7815C19.2909 35.6714 19.1424 35.5199 19.0311 35.3289C18.9218 35.1379 18.8661 34.9303 18.8661 34.7061C18.8661 34.4819 18.9218 34.2701 19.0311 34.0812C19.1404 33.8923 19.2909 33.7428 19.4806 33.6307C19.6703 33.5186 19.8786 33.4646 20.1034 33.4646C20.2745 33.4646 20.4416 33.4999 20.6024 33.5726C20.7653 33.6452 20.9055 33.7449 21.0293 33.8736L21.2911 33.556C21.1385 33.4024 20.9571 33.284 20.7488 33.1989C20.5405 33.1138 20.324 33.0723 20.1013 33.0723C19.792 33.0723 19.5095 33.1449 19.2538 33.2882C18.9981 33.4335 18.7939 33.6307 18.6475 33.8798C18.499 34.131 18.4248 34.4072 18.4248 34.7082C18.4248 35.0092 18.497 35.2915 18.6455 35.5427C18.7919 35.796 18.9919 35.9953 19.2455 36.1406C19.4992 36.286 19.7776 36.3607 20.0848 36.3607C20.3055 36.3607 20.522 36.315 20.7344 36.2237C20.9488 36.1323 21.1365 36.0078 21.2973 35.8479L21.0313 35.5573C20.9055 35.6777 20.7632 35.7711 20.6003 35.8417" fill="white"/>
<path d="M23.8009 33.1016L22.376 36.3298H22.8379L23.172 35.545H24.8629L25.2011 36.3298H25.6774L24.2566 33.1016H23.7988H23.8009ZM23.3472 35.1464L24.0154 33.579L24.6938 35.1464H23.3472Z" fill="white"/>
<path d="M29.1518 33.3112C28.9002 33.1721 28.6177 33.1016 28.3063 33.1016H27.001V36.3298H28.2919C28.6074 36.3298 28.8899 36.2592 29.1435 36.1201C29.3971 35.981 29.5972 35.7879 29.7415 35.5409C29.8859 35.2959 29.9601 35.0198 29.9601 34.7146C29.9601 34.4095 29.8879 34.1354 29.7456 33.8884C29.6013 33.6413 29.4033 33.4503 29.1518 33.3092M29.3538 35.3395C29.2487 35.5243 29.1043 35.6696 28.9229 35.7734C28.7414 35.8793 28.5393 35.9312 28.3166 35.9312H27.4423V33.5043H28.298C28.5249 33.5043 28.729 33.5562 28.9146 33.6642C29.1002 33.77 29.2446 33.9154 29.3518 34.1001C29.459 34.2849 29.5126 34.4925 29.5126 34.7229C29.5126 34.9534 29.459 35.1568 29.3538 35.3395Z" fill="white"/>
<path d="M31.906 33.1016H31.4668V36.3298H31.906V33.1016Z" fill="white"/>
<path d="M35.3196 34.6836C35.1855 34.6213 35.0103 34.557 34.7937 34.4906C34.6185 34.4345 34.4844 34.3868 34.3854 34.3452C34.2885 34.3037 34.206 34.2477 34.138 34.175C34.0699 34.1023 34.0369 34.0089 34.0369 33.8968C34.0369 33.7702 34.0926 33.6726 34.204 33.5999C34.3153 33.5273 34.4638 33.492 34.6515 33.492C34.7855 33.492 34.934 33.5148 35.0927 33.5626C35.2536 33.6103 35.4082 33.6809 35.5588 33.7764L35.7423 33.3799C35.598 33.2844 35.4351 33.2076 35.2495 33.1515C35.0639 33.0955 34.8762 33.0664 34.6844 33.0664C34.4576 33.0664 34.2597 33.1017 34.0885 33.1723C33.9173 33.2429 33.7854 33.3446 33.6905 33.4775C33.5957 33.6103 33.5482 33.7619 33.5482 33.9342C33.5482 34.1314 33.5957 34.2892 33.6884 34.4096C33.7812 34.53 33.8947 34.6193 34.0287 34.6816C34.1627 34.7438 34.338 34.8061 34.5504 34.8705C34.7236 34.9224 34.8618 34.9701 34.9649 35.0137C35.0659 35.0573 35.1525 35.1154 35.2185 35.1881C35.2845 35.2608 35.3196 35.3563 35.3196 35.4704C35.3196 35.6158 35.2577 35.7299 35.134 35.813C35.0103 35.8981 34.8412 35.9396 34.6267 35.9396C34.4473 35.9396 34.2617 35.8981 34.0699 35.8171C33.8782 35.7362 33.707 35.6199 33.5544 35.4684L33.3564 35.8504C33.5194 36.004 33.7111 36.1265 33.9338 36.2199C34.1565 36.3133 34.3854 36.359 34.6205 36.359C34.8556 36.359 35.0577 36.3216 35.2371 36.2469C35.4165 36.1721 35.5547 36.0642 35.6536 35.9272C35.7526 35.7881 35.8021 35.6261 35.8021 35.4435C35.8021 35.2442 35.7547 35.0822 35.6598 34.9618C35.565 34.8414 35.4495 34.748 35.3155 34.6878" fill="white"/>
<path d="M37.0039 33.5085H38.035V36.3298H38.4742V33.5085H39.5094V33.1016H37.0039V33.5085Z" fill="white"/>
<path d="M41.5343 33.1016L40.1094 36.3298H40.5713L40.9053 35.545H42.5963L42.9345 36.3298H43.4108L41.99 33.1016H41.5322H41.5343ZM41.0806 35.1464L41.7488 33.579L42.4272 35.1464H41.0806Z" fill="white"/>
</g>
</g>
<defs>
<clipPath id="clip0_1481_99">
<rect width="50" height="36.3636" fill="white"/>
</clipPath>
</defs>
</svg>
