<svg width="18" height="20" viewBox="0 0 18 20" fill="none" xmlns="http://www.w3.org/2000/svg">
<path d="M14.456 0C16.1911 0 17.6001 1.40885 17.6001 3.14396C17.6001 4.87907 16.1911 6.28791 14.456 6.28791C12.7208 6.28791 11.3119 4.87907 11.3119 3.14396C11.3119 1.40885 12.7208 0 14.456 0Z" stroke="#E4E4E4"/>
<path d="M14.456 13.7121C16.1911 13.7121 17.6001 15.1209 17.6001 16.856C17.6001 18.5912 16.1911 20 14.456 20C12.7208 20 11.3119 18.5912 11.3119 16.856C11.3119 15.1209 12.7208 13.7121 14.456 13.7121Z" stroke="#E4E4E4"/>
<path d="M3.14405 6.95278C4.87917 6.95278 6.28814 8.36194 6.28814 10.0971C6.28814 11.8322 4.87917 13.241 3.14405 13.241C1.40893 13.241 0 11.8322 0 10.0971C0 8.36194 1.40893 6.95278 3.14405 6.95278Z" stroke="#E4E4E4"/>
<path d="M4.89214 8.16606L11.4151 4.25228" stroke="#E4E4E4"/>
<path d="M4.89214 12.0817L11.4151 15.9955" stroke="#E4E4E4"/>
</svg>
