<svg width="283" height="31" viewBox="0 0 283 31" fill="none" xmlns="http://www.w3.org/2000/svg">
<path d="M27.8403 8.43994C27.8403 7.08815 29.2949 6.49438 31.2429 6.49438C32.8366 6.49438 34.8857 6.96182 36.3404 7.51769L37.3649 3.47496C37.2637 3.43706 36.3277 3.13386 36.2265 3.09596C34.5822 2.59062 32.2042 2.27478 30.6231 2.27478C26.3857 2.27478 22.161 4.15718 22.161 9.23585C22.161 17.2202 32.5077 14.4535 32.5077 17.8519C32.5077 19.2416 31.0911 19.6332 29.472 19.6332C27.4861 19.6332 24.7413 18.9005 22.8566 17.8519L21.6803 22.122C21.6803 22.122 22.3633 22.4758 22.9199 22.7158C25.0828 23.6254 27.8024 23.9665 30.0665 23.9665C34.2659 23.9665 38.1618 22.021 38.1618 17.0686C38.1618 9.10951 27.853 11.6489 27.853 8.45257" fill="white"/>
<path d="M45.4853 8.43994C45.4853 7.08815 46.9399 6.49438 48.8878 6.49438C50.4816 6.49438 52.5307 6.96182 53.9853 7.51769L55.0099 3.47496C54.9087 3.43706 53.9726 3.13386 53.8715 3.09596C52.2271 2.59062 49.8491 2.27478 48.268 2.27478C44.0306 2.27478 39.8059 4.15718 39.8059 9.23585C39.8059 17.2202 50.1527 14.4535 50.1527 17.8519C50.1527 19.2416 48.736 19.6332 47.1169 19.6332C45.1311 19.6332 42.3863 18.9005 40.5016 17.8519L39.3252 22.122C39.3252 22.122 40.0083 22.4758 40.5648 22.7158C42.7278 23.6254 45.4473 23.9665 47.7114 23.9665C51.9109 23.9665 55.8067 22.021 55.8067 17.0686C55.8067 9.10951 45.4979 11.6489 45.4979 8.45257" fill="white"/>
<path d="M80.7757 1.31389V1.54129H88.7065V0L80.7757 1.31389Z" fill="white"/>
<path d="M64.3079 15.8678L65.7625 10.8143C66.1293 9.56363 66.4582 8.40134 66.4582 8.40134C66.4582 8.40134 66.8882 9.65206 67.2803 10.8396L68.8994 15.8551L69.1271 16.5626H64.0928L64.2952 15.8551L64.3079 15.8678ZM59.9061 2.65309V6.72108H61.9172L56.4276 23.5616H62.0817L62.9418 20.6306H70.4805L71.4418 23.5616H77.488L69.9493 2.66572H59.8934L59.9061 2.65309Z" fill="white"/>
<path d="M78.6886 2.65309V6.72108H80.7377V19.4936H78.6886V23.5616H88.7065V20.4916V19.4936H86.5309V6.72108H88.7065V6.25365V2.65309H78.6886Z" fill="white"/>
<path d="M7.88027 15.8678L9.33488 10.8143C9.7017 9.56363 10.0306 8.40134 10.0306 8.40134C10.0306 8.40134 10.4606 9.65206 10.8528 10.8396L12.4718 15.8551L12.6995 16.5626H7.66522L7.86761 15.8551L7.88027 15.8678ZM14.0656 20.6306L15.0269 23.5616H21.073L13.5343 2.65309H3.47844V6.72108H5.48961L0 23.5616H5.65405L6.51421 20.6306H14.0529H14.0656Z" fill="white"/>
<path d="M275.024 16.2596C274.126 15.7416 272.431 14.7056 272.431 12.8611C272.431 11.3072 273.493 9.867 274.91 8.74262C276.377 7.6435 278.629 7.454 279.805 7.454C280.665 7.454 281.273 7.51717 281.791 7.65614H281.766C282.715 7.85827 283.208 8.69208 282.917 9.34902C282.714 9.80383 282.133 10.0439 281.5 10.0439C281.121 10.0439 280.779 9.9807 280.526 9.84173H280.552C280.121 9.63959 279.628 9.50063 279.135 9.50063C277.288 9.50063 276.314 10.8777 276.314 11.9768C276.314 13.3286 277.238 13.8466 278.186 14.3898L279.628 15.2868C280.552 15.83 281.968 16.7017 281.968 18.3946C281.968 19.6327 281.336 21.2751 279.514 22.6016C277.819 23.8397 275.682 23.9281 274.354 23.9281C273.582 23.9281 272.772 23.8397 272.216 23.726C271.204 23.4733 270.521 22.7153 270.685 22.0836C271.065 21.1361 272.216 20.7824 273.101 21.2245H273.076C273.62 21.4898 274.29 21.6793 275.29 21.6793C277.187 21.6793 278.199 20.4665 278.199 19.3169C278.199 18.1672 277.503 17.7377 276.782 17.3081L274.999 16.2722L275.024 16.2596ZM270.002 8.94475C271.495 10.4481 271.558 12.1158 271.558 12.9117C271.558 17.3966 268.649 23.8776 262.046 23.8776C260.377 23.8776 258.732 23.4228 257.606 22.4121C256.911 21.7552 255.823 20.4792 255.823 17.9525C255.823 13.316 258.909 7.454 265.386 7.454C267.435 7.454 269.041 7.9467 269.99 8.94475M266.726 10.1576C266.385 9.84173 265.803 9.4122 264.968 9.4122C260.845 9.4122 259.845 16.0574 259.845 18.3062C259.845 21.0098 260.996 21.9573 262.324 21.9573C266.878 21.9573 267.511 14.1877 267.511 12.8106C267.511 12.0905 267.485 10.8524 266.739 10.1576M254.039 16.4617C253.521 19.3421 253.293 21.035 253.205 22.0204C253.141 22.8543 252.104 23.4354 251.016 23.4354H250.789C249.865 23.4607 249.144 22.6648 249.233 21.9446C249.233 21.9194 249.258 21.8562 249.258 21.8057C249.397 21.1993 249.6 20.3907 249.802 19.2158L250.295 16.3985C250.991 12.5958 251.244 10.7261 251.219 9.69013C251.193 8.99529 251.51 8.16148 252.598 8.11094C253.002 8.04778 253.293 7.99724 253.609 7.93408C254.583 7.73194 255.418 8.45205 255.368 9.19743C255.342 9.31113 255.317 9.51327 255.317 9.65224C255.203 10.1702 255.051 10.8651 254.887 11.8126L254.052 16.4743L254.039 16.4617ZM256.342 3.82818C256.342 4.77569 255.481 6.24118 253.799 6.24118C252.825 6.24118 251.813 5.78637 251.813 4.71252C251.813 3.81554 252.623 2.35005 254.406 2.35005C255.418 2.35005 256.342 2.84276 256.342 3.81554M249.549 7.6814C250.447 7.88354 250.725 8.71735 250.498 9.29849C250.321 9.7533 249.802 9.93017 249.17 9.93017C248.79 9.93017 248.474 9.867 248.246 9.7533H248.272C247.93 9.63959 247.551 9.55117 247.121 9.55117C243.604 9.55117 241.53 13.4044 241.53 17.3208C241.53 18.7357 241.757 20.4539 243.06 21.2624C243.807 21.7551 244.527 21.9194 245.223 21.9194C245.856 21.9194 246.4 21.8057 246.956 21.6035C247.791 21.3761 248.398 21.9446 248.196 22.5258C247.943 23.1827 247.07 23.6754 246.121 23.8144C245.691 23.8776 245.135 23.9028 244.629 23.9028C240.075 23.9028 237.305 21.4267 237.305 17.5103C237.305 13.0254 240.594 7.46663 247.563 7.46663C248.423 7.46663 249.056 7.55506 249.549 7.66876M235.193 8.94475C236.685 10.4481 236.748 12.1158 236.748 12.9117C236.748 17.3966 233.839 23.8776 227.237 23.8776C225.567 23.8776 223.922 23.4228 222.797 22.4121C222.101 21.7552 221.013 20.4792 221.013 17.9525C221.013 13.316 224.1 7.454 230.576 7.454C232.625 7.454 234.231 7.9467 235.193 8.94475ZM231.917 10.1576C231.575 9.84173 230.993 9.4122 230.158 9.4122C226.035 9.4122 225.023 16.0574 225.023 18.3062C225.023 21.0098 226.174 21.9573 227.502 21.9573C232.056 21.9573 232.688 14.1877 232.688 12.8106C232.688 12.0905 232.663 10.8524 231.917 10.1576ZM229.728 6.32961C230.538 6.32961 231.626 6.03905 232.587 5.49581C233.966 4.45986 234.206 4.23245 234.345 3.71447C234.548 2.94383 233.89 2.36269 232.929 2.36269C231.512 2.36269 231.12 2.9691 230.917 3.77765C230.778 4.38405 230.31 4.99046 229.589 5.50843C229.159 5.84954 229.096 6.34225 229.728 6.34225M218.281 21.0982C217.535 25.2167 216.991 28.3498 212.602 29.9669H212.627C211.185 30.5102 209.338 30.7376 207.669 30.7376C206.771 30.7376 206.024 30.6744 205.455 30.5607C204.671 30.3586 204.102 29.6132 204.418 28.9815C204.797 28.2361 205.797 27.9456 206.783 28.2614C207.277 28.4004 207.82 28.5141 208.541 28.5141C209.958 28.5141 211.425 28.0593 212.513 26.8717C213.462 26.0126 214.006 23.966 214.588 21.035C213.55 22.4753 212.197 23.827 210.123 23.827C208.225 23.827 206.783 23.0564 206.088 21.8941H206.113C205.303 20.656 205.253 19.4432 205.253 18.8494C205.253 14.2129 208.655 7.47927 215.132 7.47927C216.751 7.47927 217.636 7.85827 218.382 8.17411H218.294L218.344 8.19938C218.547 8.11094 218.686 8.06041 218.686 8.06041C219.748 7.6814 220.76 8.40151 220.533 9.27323C220.267 10.1955 220.014 11.3199 219.609 13.7076L218.256 21.0982H218.281ZM214.739 9.43746C210.135 9.43746 209.262 15.6279 209.262 17.8388C209.262 18.5589 209.351 19.5948 209.718 20.1633C210.148 20.8834 210.666 21.2624 211.248 21.2624C212.222 21.2624 213.323 20.2897 214.107 19.279C214.967 17.864 215.524 15.3878 216.611 9.89227H216.7C216.207 9.69013 215.549 9.43746 214.739 9.43746ZM198.574 21.932C199.611 21.932 200.471 21.6414 201.167 21.3509C201.888 21.035 202.748 21.4646 202.584 22.0963C202.381 22.7279 201.774 23.3596 200.737 23.6502C200.016 23.7891 199.118 23.9407 197.916 23.9407C192.907 23.8018 191.668 21.1235 191.605 17.5229C191.605 14.4403 193.16 11.8505 194.147 10.6755C196.133 8.19938 198.954 7.39083 201.028 7.39083C204.114 7.39083 205.67 8.91949 205.67 10.903C205.67 11.7115 205.265 12.8359 204.633 13.8087C203.937 14.8446 202.672 15.6784 201.66 16.1711C199.852 17.0934 197.916 17.2071 195.728 17.2955C195.703 17.4092 195.665 17.7882 195.665 18.3315C195.665 19.7085 196.07 21.9573 198.574 21.932ZM195.842 16.487C197.423 16.2596 199.093 15.2236 200.535 13.8718C201.192 13.2149 201.711 12.2042 201.711 11.0293C201.711 9.7912 201.104 9.21005 200.383 9.21005C199.953 9.21005 198.966 9.4122 197.727 10.8524C196.829 11.9136 196.057 14.0992 195.829 16.487M185.204 14.933C185.609 15.9058 185.988 16.7523 186.241 17.3839V17.3334C186.444 16.1838 186.621 15.0594 186.785 13.935L186.874 13.417L187.936 7.58033C188.164 6.34224 188.278 5.50843 188.341 4.92729C188.43 4.03031 189.353 3.32284 190.504 3.32284H190.643C191.617 3.32284 192.401 4.06822 192.136 4.81359C191.756 5.91271 191.276 7.89617 190.896 9.56379C190.833 9.85436 190.782 10.107 190.719 10.3976C190.517 11.4083 190.314 12.52 190.087 13.5939C189.859 14.693 189.657 15.7795 189.454 16.8154C189.429 17.0428 189.391 17.2702 189.34 17.5103C189.315 17.624 189.29 17.763 189.252 17.8893C188.936 19.5822 188.759 20.6308 188.645 21.7172C188.645 21.7425 188.619 21.7804 188.619 21.8057C188.594 21.9446 188.594 22.0584 188.594 22.1468C188.506 22.9174 187.696 23.5617 186.608 23.5238C185.571 23.4986 184.597 23.0059 184.331 22.3363C184.066 21.5909 183.61 20.5171 182.51 18.0156C182.055 16.9797 181.587 15.9437 181.131 14.8825C180.663 13.8213 180.183 12.7853 179.715 11.7494C179.626 11.5473 179.512 11.2567 179.424 11.0545C178.88 9.93016 178.791 9.95543 178.159 8.08567C177.868 9.84173 177.665 11.1051 177.235 13.8718C177.122 14.6425 176.97 15.5395 176.805 16.5754C176.35 19.3421 176.148 20.9466 176.084 21.932C176.034 22.7911 175.022 23.4859 173.833 23.4228H173.567C172.53 23.4228 171.758 22.7027 171.961 21.9825C172.454 20.5676 173.251 17.0555 174.491 10.385C174.959 7.88354 175.148 5.90007 175.148 4.93993C175.148 4.10611 175.895 3.29757 177.084 3.29757H178.323C179.613 3.2723 180.625 3.99241 180.891 4.93993H180.866C181.093 5.59687 181.384 6.24118 181.903 7.39083L185.192 14.933H185.204ZM157.832 16.2596C156.934 15.7416 155.239 14.7056 155.239 12.8611C155.239 11.3072 156.302 9.867 157.718 8.74262C159.185 7.6435 161.437 7.454 162.613 7.454C163.473 7.454 164.081 7.51717 164.599 7.65614H164.574C165.523 7.85827 166.016 8.69208 165.725 9.34902C165.523 9.80383 164.953 10.0439 164.308 10.0439C163.929 10.0439 163.587 9.9807 163.334 9.84173H163.36C162.93 9.63959 162.436 9.50063 161.943 9.50063C160.096 9.50063 159.122 10.8777 159.122 11.9768C159.122 13.3286 160.046 13.8466 160.994 14.3898L162.436 15.2868C163.36 15.83 164.776 16.7017 164.776 18.3946C164.776 19.6327 164.144 21.2751 162.322 22.6016C160.627 23.8397 158.49 23.9281 157.162 23.9281C156.377 23.9281 155.581 23.8397 155.024 23.726C154.012 23.4733 153.329 22.7153 153.493 22.0836C153.873 21.1361 155.024 20.7824 155.909 21.2245H155.884C156.428 21.4898 157.098 21.6793 158.098 21.6793C159.995 21.6793 161.007 20.4665 161.007 19.3169C161.007 18.1672 160.311 17.7377 159.59 17.3081L157.807 16.2722L157.832 16.2596ZM140.25 13.2907C140.452 12.1158 140.68 10.6755 140.68 9.57643V9.39956C140.655 8.74262 141.06 7.98461 142.059 7.8709C142.35 7.84564 142.577 7.80774 142.868 7.75721C142.894 7.75721 142.982 7.73193 143.008 7.73193C143.931 7.61823 144.905 8.22464 144.816 8.90685C144.753 9.24796 144.905 8.64155 144.753 9.36166C144.892 9.18479 145.095 8.98265 145.297 8.81842C146.448 7.92144 147.979 7.3782 149.648 7.3782C151.457 7.3782 153.911 8.00987 153.911 10.4355C153.911 10.9535 153.822 11.5852 153.595 12.9117C153.481 13.5181 153.367 14.2635 153.253 14.9204C153.139 15.6153 153 16.2469 152.874 16.9039C152.646 18.142 152.241 20.4665 152.153 21.9068C152.089 22.7658 151.09 23.3975 149.964 23.3975H149.699C148.75 23.4228 147.89 22.7658 148.092 22.0457C148.383 21.1235 148.7 19.7464 149.13 16.9797L149.471 15.0846C149.737 13.6697 149.901 12.5579 149.901 11.7115C149.901 10.3344 149.471 9.7533 148.206 9.7533C147.106 9.7533 145.79 10.6503 144.943 11.6862C144.045 12.8359 143.703 14.9709 143.45 16.5249L142.932 19.898C142.793 20.795 142.729 21.4267 142.704 21.9699C142.641 22.8037 141.604 23.3849 140.516 23.3849H140.288C139.314 23.4101 138.479 22.7279 138.618 22.0584C138.909 21.0224 139.112 19.9612 139.314 18.6599L140.237 13.2781L140.25 13.2907ZM136.62 8.94475C138.112 10.4481 138.176 12.1158 138.176 12.9117C138.176 17.3966 135.266 23.8776 128.664 23.8776C126.994 23.8776 125.35 23.4228 124.224 22.4121C123.528 21.7552 122.44 20.4792 122.44 17.9525C122.44 13.316 125.527 7.454 132.003 7.454C134.052 7.454 135.659 7.9467 136.607 8.94475M133.331 10.1576C132.99 9.84173 132.408 9.4122 131.573 9.4122C127.449 9.4122 126.45 16.0574 126.45 18.3062C126.45 21.0098 127.601 21.9573 128.929 21.9573C133.483 21.9573 134.115 14.1877 134.115 12.8106C134.115 12.0905 134.09 10.8524 133.331 10.1576ZM109.134 8.02251C109.425 6.58229 109.513 5.57161 109.513 4.86413C109.488 4.05558 110.171 3.24704 111.297 3.28494H111.702C112.245 3.28494 113.004 3.25967 113.776 3.22177C114.067 3.22177 114.383 3.1965 114.674 3.1965C115.256 3.17124 115.964 3.14597 116.521 3.14597C118.456 3.14597 120.606 3.2344 121.732 4.58619C122.314 5.35684 122.681 6.34225 122.681 7.23923C122.681 8.81842 121.757 10.7766 119.822 12.04C118.81 12.6716 117.659 12.9622 116.799 13.0759C118.608 13.3918 121.378 14.2003 121.378 17.3081C121.378 18.6347 120.834 19.8349 119.911 20.9971C119.215 21.8057 117.609 23.7639 112.448 23.7639C111.499 23.7639 110.803 23.7386 110.171 23.7007H109.994C109.475 23.6754 108.982 23.6502 108.375 23.6502H107.995C106.933 23.6502 106.123 22.8164 106.263 22.0078C106.402 21.4014 106.604 20.5676 106.87 19.3548C106.87 19.2411 106.895 19.0642 106.933 18.9505L109.121 8.04777L109.134 8.02251ZM114.054 14.3014C113.649 14.3014 113.194 14.3014 111.841 14.3266L110.867 19.1905C110.728 19.9107 110.664 20.3149 110.664 20.6055C110.664 21.6162 111.322 21.692 112.334 21.692C116.306 21.692 117.065 18.6473 117.065 17.1186C117.065 14.3014 114.813 14.3014 114.067 14.3014M113.776 5.20523C113.776 5.20523 113.662 5.20524 113.599 5.2305L112.309 11.9642H112.397C112.536 11.9642 112.739 11.9894 112.916 11.9894C113.257 11.9894 113.953 11.9642 114.56 11.901C115.054 11.8378 115.686 11.6989 116.293 11.4462C117.786 10.7513 118.481 9.03319 118.481 7.6814C118.481 5.29366 116.812 5.06626 115.623 5.06626C114.99 5.06626 114.408 5.12943 113.776 5.20523Z" fill="#D8D8D8"/>
</svg>
