<svg width="361" height="6" viewBox="0 0 361 6" fill="none" xmlns="http://www.w3.org/2000/svg">
<path d="M0.000326043 2.67094C0.000326043 4.14642 1.19644 5.34254 2.67192 5.34254C4.1474 5.34254 5.34352 4.14642 5.34352 2.67094C5.34352 1.19546 4.1474 -0.000652325 2.67192 -0.000652325C1.19644 -0.000652325 0.000326043 1.19546 0.000326043 2.67094ZM355.656 2.67094C355.656 4.14642 356.853 5.34254 358.328 5.34254C359.804 5.34254 361 4.14642 361 2.67094C361 1.19546 359.804 -0.000652325 358.328 -0.000652325C356.853 -0.000652325 355.656 1.19546 355.656 2.67094ZM2.67192 2.67094V3.17187H358.328V2.67094V2.17002H2.67192V2.67094Z" fill="#FFDC00"/>
</svg>
