<svg width="19" height="21" viewBox="0 0 19 21" fill="none" xmlns="http://www.w3.org/2000/svg">
<path d="M14.9483 0.51514C16.6808 0.51514 18.0877 1.92187 18.0877 3.65437C18.0877 5.38686 16.6808 6.79359 14.9483 6.79359C13.2158 6.79359 11.809 5.38686 11.809 3.65437C11.809 1.92187 13.2158 0.51514 14.9483 0.51514Z" stroke="#E4E4E4"/>
<path d="M14.9483 14.2066C16.6808 14.2066 18.0877 15.6133 18.0877 17.3458C18.0877 19.0783 16.6808 20.485 14.9483 20.485C13.2158 20.485 11.809 19.0783 11.809 17.3458C11.809 15.6133 13.2158 14.2066 14.9483 14.2066Z" stroke="#E4E4E4"/>
<path d="M3.65446 7.45745C5.38697 7.45745 6.79382 8.8645 6.79382 10.597C6.79382 12.3295 5.38697 13.7362 3.65446 13.7362C1.92195 13.7362 0.51514 12.3295 0.51514 10.597C0.51514 8.8645 1.92195 7.45745 3.65446 7.45745Z" stroke="#E4E4E4"/>
<path d="M5.39891 8.66891L11.9121 4.76102" stroke="#E4E4E4"/>
<path d="M5.39891 12.5787L11.9121 16.4866" stroke="#E4E4E4"/>
</svg>
