<svg width="22" height="23" viewBox="0 0 22 23" fill="none" xmlns="http://www.w3.org/2000/svg">
<g clip-path="url(#clip0_1649_684)">
<rect width="22" height="23" fill="white"/>
<path d="M21.9976 16.1411C21.9974 15.9909 21.9874 15.835 21.9475 15.6914C21.7472 14.971 21.0667 14.5448 20.2957 14.6451C19.5642 14.7403 19.0672 15.2874 19.057 16.0542C19.0413 17.2324 19.0346 18.4111 19.0524 19.5891C19.0577 19.9405 18.9805 20.0586 18.596 20.0575C13.5237 20.0445 8.4513 20.0473 3.37871 20.0586C3.05119 20.0592 2.94099 19.9906 2.94853 19.6447C2.97403 18.4669 2.96449 17.2883 2.96427 16.1098C2.96405 15.2547 2.34871 14.6326 1.50653 14.628C0.654376 14.6236 0.00311674 15.263 0.00178628 16.1173C-0.000431148 17.7899 -0.00198335 19.4624 0.0059994 21.1347C0.0117647 22.3244 0.69562 22.9953 1.88815 22.9957C4.91627 22.9973 17.1055 23.001 20.172 22.9988C21.2805 22.9979 21.9982 22.2868 21.9989 21.1963C22 19.511 22.0007 17.8259 21.9976 16.1409V16.1411Z" fill="#004696"/>
<path d="M5.21693 11.8407C6.76735 13.403 8.31401 14.9691 9.86466 16.5315C10.5554 17.2275 11.4856 17.2508 12.1757 16.5586C13.7928 14.9368 15.4005 13.3056 16.9997 11.6663C17.6026 11.0481 17.5902 10.2026 17.0101 9.62387C16.4416 9.05653 15.4938 9.0275 14.8982 9.59132L12.5056 11.8466C12.5056 11.6711 12.5056 11.5337 12.5056 11.3962C12.503 8.15209 12.5001 4.90815 12.4979 1.664C12.4979 1.38451 12.4934 1.10986 12.3597 0.849278C12.0286 0.203658 11.3588 -0.120911 10.6674 0.0413734C9.9405 0.211794 9.53626 0.747246 9.53648 1.55031L9.48925 11.8382L7.15784 9.58978C6.68398 9.13789 5.99281 9.06708 5.41317 9.36087C4.8954 9.62343 4.60669 10.1903 4.6639 10.8278C4.70138 11.245 4.9331 11.5543 5.21693 11.8407Z" fill="#004696"/>
</g>
<defs>
<clipPath id="clip0_1649_684">
<rect width="22" height="23" fill="white"/>
</clipPath>
</defs>
</svg>
